solid OpenSCAD_Model
  facet normal 0 -1 0
    outer loop
      vertex -12 5 0
      vertex -12 5 6
      vertex -30 5 6
    endloop
  endfacet
  facet normal 0 -1 0
    outer loop
      vertex -30 5 0
      vertex -12 5 0
      vertex -30 5 6
    endloop
  endfacet
  facet normal 0 0 -1
    outer loop
      vertex -12 23 0
      vertex 8 18.5563 0
      vertex -30 23 0
    endloop
  endfacet
  facet normal 0 0 -1
    outer loop
      vertex 23.5563 25 0
      vertex 8 18.5563 0
      vertex 14.4437 25 0
    endloop
  endfacet
  facet normal 0 0 -1
    outer loop
      vertex 16.7218 19.5 0
      vertex 8 18.5563 0
      vertex 23.5563 25 0
    endloop
  endfacet
  facet normal 0 0 -1
    outer loop
      vertex -30 23 0
      vertex 8 18.5563 0
      vertex 13.5 16.2782 0
    endloop
  endfacet
  facet normal 0 0 -1
    outer loop
      vertex 13.5 16.2782 0
      vertex 8 18.5563 0
      vertex 16.7218 19.5 0
    endloop
  endfacet
  facet normal 0 0 -1
    outer loop
      vertex 30 18.5563 0
      vertex 21.2782 19.5 0
      vertex 23.5563 25 0
    endloop
  endfacet
  facet normal 0 0 -1
    outer loop
      vertex 21.2782 19.5 0
      vertex 16.7218 19.5 0
      vertex 23.5563 25 0
    endloop
  endfacet
  facet normal 0 0 -1
    outer loop
      vertex 8 9.44365 0
      vertex 23.5563 3 0
      vertex 14.4437 3 0
    endloop
  endfacet
  facet normal 0 0 -1
    outer loop
      vertex -30 23 0
      vertex 13.5 16.2782 0
      vertex 13.5 11.7218 0
    endloop
  endfacet
  facet normal 0 0 -1
    outer loop
      vertex -12 5 0
      vertex -16.975 11.6762 0
      vertex -16.975 15.963 0
    endloop
  endfacet
  facet normal 0 0 -1
    outer loop
      vertex 8 11.5167 0
      vertex 16.7218 8.5 0
      vertex 8 9.44365 0
    endloop
  endfacet
  facet normal 0 0 -1
    outer loop
      vertex 21.2782 8.5 0
      vertex 23.1115 10.3333 0
      vertex 30 10.3333 0
    endloop
  endfacet
  facet normal 0 0 -1
    outer loop
      vertex 21.2782 8.5 0
      vertex 30 10.3333 0
      vertex 30 9.44365 0
    endloop
  endfacet
  facet normal 0 0 -1
    outer loop
      vertex 21.2782 8.5 0
      vertex 30 9.44365 0
      vertex 23.5563 3 0
    endloop
  endfacet
  facet normal 0 0 -1
    outer loop
      vertex 21.2782 8.5 0
      vertex 23.5563 3 0
      vertex 16.7218 8.5 0
    endloop
  endfacet
  facet normal 0 0 -1
    outer loop
      vertex 8 9.44365 0
      vertex -30 23 0
      vertex 8 11.5167 0
    endloop
  endfacet
  facet normal 0 0 -1
    outer loop
      vertex 16.7218 8.5 0
      vertex 23.5563 3 0
      vertex 8 9.44365 0
    endloop
  endfacet
  facet normal 0 0 -1
    outer loop
      vertex 13.5 11.7218 0
      vertex 16.7218 8.5 0
      vertex 8 11.5167 0
    endloop
  endfacet
  facet normal 0 0 -1
    outer loop
      vertex 13.5 11.7218 0
      vertex 8 11.5167 0
      vertex -30 23 0
    endloop
  endfacet
  facet normal 0 0 -1
    outer loop
      vertex -16.975 16.3238 0
      vertex -20.6875 18.4672 0
      vertex -21 18.6477 0
    endloop
  endfacet
  facet normal 0 0 -1
    outer loop
      vertex -12 5 0
      vertex -16.975 15.963 0
      vertex -16.975 16.3238 0
    endloop
  endfacet
  facet normal 0 0 -1
    outer loop
      vertex -16.975 11.6762 0
      vertex -12 5 0
      vertex -21 9.35233 0
    endloop
  endfacet
  facet normal 0 0 -1
    outer loop
      vertex -21 9.35233 0
      vertex -12 5 0
      vertex -30 5 0
    endloop
  endfacet
  facet normal 0 0 -1
    outer loop
      vertex -30 23 0
      vertex -25.025 11.6762 0
      vertex -30 5 0
    endloop
  endfacet
  facet normal 0 0 -1
    outer loop
      vertex -25.025 11.6762 0
      vertex -21.3125 9.53275 0
      vertex -30 5 0
    endloop
  endfacet
  facet normal 0 0 -1
    outer loop
      vertex -21.3125 9.53275 0
      vertex -21 9.35233 0
      vertex -30 5 0
    endloop
  endfacet
  facet normal 0 0 -1
    outer loop
      vertex -25.025 16.3238 0
      vertex -30 23 0
      vertex -21 18.6477 0
    endloop
  endfacet
  facet normal 0 0 -1
    outer loop
      vertex -30 23 0
      vertex -25.025 16.3238 0
      vertex -25.025 12.037 0
    endloop
  endfacet
  facet normal 0 0 -1
    outer loop
      vertex -30 23 0
      vertex -25.025 12.037 0
      vertex -25.025 11.6762 0
    endloop
  endfacet
  facet normal 0 0 -1
    outer loop
      vertex 21.2782 19.5 0
      vertex 30 18.5563 0
      vertex 30 17.6667 0
    endloop
  endfacet
  facet normal 0 0 -1
    outer loop
      vertex 21.2782 19.5 0
      vertex 30 17.6667 0
      vertex 23.1115 17.6667 0
    endloop
  endfacet
  facet normal 0 0 -1
    outer loop
      vertex -21 18.6477 0
      vertex -30 23 0
      vertex 8 9.44365 0
    endloop
  endfacet
  facet normal 0 0 -1
    outer loop
      vertex -16.975 16.3238 0
      vertex -21 18.6477 0
      vertex 8 9.44365 0
    endloop
  endfacet
  facet normal 0 0 -1
    outer loop
      vertex -12 5 0
      vertex -16.975 16.3238 0
      vertex 8 9.44365 0
    endloop
  endfacet
  facet normal -1 0 0
    outer loop
      vertex -30 23 6
      vertex -30 23 0
      vertex -30 5 6
    endloop
  endfacet
  facet normal -1 0 0
    outer loop
      vertex -30 5 6
      vertex -30 23 0
      vertex -30 5 0
    endloop
  endfacet
  facet normal 0.216894 -0.976195 0
    outer loop
      vertex 8 9.44365 0
      vertex 8 9.44365 3
      vertex -12 5 6
    endloop
  endfacet
  facet normal 0.216894 -0.976195 0
    outer loop
      vertex -12 5 0
      vertex 8 9.44365 0
      vertex -12 5 6
    endloop
  endfacet
  facet normal 0.14834 0 0.988936
    outer loop
      vertex 8 9.44365 3
      vertex 8 11.5167 3
      vertex 8 18.5563 3
    endloop
  endfacet
  facet normal 0.14834 0 0.988936
    outer loop
      vertex -12 5 6
      vertex 8 9.44365 3
      vertex -12 23 6
    endloop
  endfacet
  facet normal 0.14834 0 0.988936
    outer loop
      vertex -12 23 6
      vertex 8 9.44365 3
      vertex 8 18.5563 3
    endloop
  endfacet
  facet normal 0 1 0
    outer loop
      vertex -12 23 6
      vertex -12 23 0
      vertex -30 23 6
    endloop
  endfacet
  facet normal 0 1 0
    outer loop
      vertex -30 23 6
      vertex -12 23 0
      vertex -30 23 0
    endloop
  endfacet
  facet normal 1 0 0
    outer loop
      vertex 8 11.5167 0
      vertex 8 11.5167 3
      vertex 8 9.44365 3
    endloop
  endfacet
  facet normal 1 0 0
    outer loop
      vertex 8 9.44365 0
      vertex 8 11.5167 0
      vertex 8 9.44365 3
    endloop
  endfacet
  facet normal -1 -9.05668e-008 0
    outer loop
      vertex 8 9.44365 0
      vertex 8 11.5167 3
      vertex 8 11.5167 0
    endloop
  endfacet
  facet normal -1 -9.05668e-008 0
    outer loop
      vertex 8 9.44365 4
      vertex 8 11.5167 3
      vertex 8 9.44365 0
    endloop
  endfacet
  facet normal -1 -9.05668e-008 0
    outer loop
      vertex 8 18.5563 3
      vertex 8 11.5167 3
      vertex 8 9.44365 4
    endloop
  endfacet
  facet normal -1 -9.05668e-008 0
    outer loop
      vertex 8 18.5563 3
      vertex 8 9.44365 4
      vertex 8 18.5563 4
    endloop
  endfacet
  facet normal -1 -9.05668e-008 0
    outer loop
      vertex 8 18.5563 3
      vertex 8 18.5563 4
      vertex 8 18.5563 0
    endloop
  endfacet
  facet normal -0.707107 -0.707107 0
    outer loop
      vertex 14.4437 3 4
      vertex 8 9.44365 4
      vertex 14.4437 3 0
    endloop
  endfacet
  facet normal -0.707107 -0.707107 0
    outer loop
      vertex 14.4437 3 0
      vertex 8 9.44365 4
      vertex 8 9.44365 0
    endloop
  endfacet
  facet normal 9.05668e-008 -1 0
    outer loop
      vertex 23.5563 3 0
      vertex 23.5563 3 4
      vertex 14.4437 3 4
    endloop
  endfacet
  facet normal 9.05668e-008 -1 0
    outer loop
      vertex 14.4437 3 0
      vertex 23.5563 3 0
      vertex 14.4437 3 4
    endloop
  endfacet
  facet normal 0.707107 -0.707107 0
    outer loop
      vertex 30 9.44365 0
      vertex 30 9.44365 4
      vertex 23.5563 3 4
    endloop
  endfacet
  facet normal 0.707107 -0.707107 0
    outer loop
      vertex 23.5563 3 0
      vertex 30 9.44365 0
      vertex 23.5563 3 4
    endloop
  endfacet
  facet normal 1 9.05668e-008 0
    outer loop
      vertex 30 10.3333 4
      vertex 30 9.44365 4
      vertex 30 9.44365 0
    endloop
  endfacet
  facet normal 1 9.05668e-008 0
    outer loop
      vertex 30 10.3333 0
      vertex 30 10.3333 4
      vertex 30 9.44365 0
    endloop
  endfacet
  facet normal 0 1 0
    outer loop
      vertex 23.1115 10.3333 0
      vertex 23.1115 10.3333 4
      vertex 30 10.3333 0
    endloop
  endfacet
  facet normal 0 1 0
    outer loop
      vertex 30 10.3333 0
      vertex 23.1115 10.3333 4
      vertex 30 10.3333 4
    endloop
  endfacet
  facet normal -0.707107 0.707107 0
    outer loop
      vertex 21.2782 8.5 0
      vertex 21.2782 8.5 4
      vertex 23.1115 10.3333 0
    endloop
  endfacet
  facet normal -0.707107 0.707107 0
    outer loop
      vertex 23.1115 10.3333 0
      vertex 21.2782 8.5 4
      vertex 23.1115 10.3333 4
    endloop
  endfacet
  facet normal -9.05668e-008 1 0
    outer loop
      vertex 16.7218 8.5 0
      vertex 16.7218 8.5 4
      vertex 21.2782 8.5 0
    endloop
  endfacet
  facet normal -9.05668e-008 1 0
    outer loop
      vertex 21.2782 8.5 0
      vertex 16.7218 8.5 4
      vertex 21.2782 8.5 4
    endloop
  endfacet
  facet normal 0.707107 0.707107 0
    outer loop
      vertex 16.7218 8.5 0
      vertex 13.5 11.7218 0
      vertex 13.5 11.7218 4
    endloop
  endfacet
  facet normal 0.707107 0.707107 0
    outer loop
      vertex 16.7218 8.5 4
      vertex 16.7218 8.5 0
      vertex 13.5 11.7218 4
    endloop
  endfacet
  facet normal 1 9.05668e-008 0
    outer loop
      vertex 13.5 11.7218 0
      vertex 13.5 16.2782 0
      vertex 13.5 16.2782 4
    endloop
  endfacet
  facet normal 1 9.05668e-008 0
    outer loop
      vertex 13.5 11.7218 4
      vertex 13.5 11.7218 0
      vertex 13.5 16.2782 4
    endloop
  endfacet
  facet normal 0.707107 -0.707107 0
    outer loop
      vertex 13.5 16.2782 4
      vertex 13.5 16.2782 0
      vertex 16.7218 19.5 0
    endloop
  endfacet
  facet normal 0.707107 -0.707107 0
    outer loop
      vertex 16.7218 19.5 4
      vertex 13.5 16.2782 4
      vertex 16.7218 19.5 0
    endloop
  endfacet
  facet normal 9.05668e-008 -1 0
    outer loop
      vertex 16.7218 19.5 4
      vertex 16.7218 19.5 0
      vertex 21.2782 19.5 0
    endloop
  endfacet
  facet normal 9.05668e-008 -1 0
    outer loop
      vertex 21.2782 19.5 4
      vertex 16.7218 19.5 4
      vertex 21.2782 19.5 0
    endloop
  endfacet
  facet normal -0.707107 -0.707107 0
    outer loop
      vertex 21.2782 19.5 0
      vertex 23.1115 17.6667 0
      vertex 21.2782 19.5 4
    endloop
  endfacet
  facet normal -0.707107 -0.707107 0
    outer loop
      vertex 21.2782 19.5 4
      vertex 23.1115 17.6667 0
      vertex 23.1115 17.6667 4
    endloop
  endfacet
  facet normal 0 -1 0
    outer loop
      vertex 23.1115 17.6667 4
      vertex 23.1115 17.6667 0
      vertex 30 17.6667 0
    endloop
  endfacet
  facet normal 0 -1 0
    outer loop
      vertex 30 17.6667 4
      vertex 23.1115 17.6667 4
      vertex 30 17.6667 0
    endloop
  endfacet
  facet normal 1 9.05668e-008 0
    outer loop
      vertex 30 18.5563 4
      vertex 30 17.6667 4
      vertex 30 17.6667 0
    endloop
  endfacet
  facet normal 1 9.05668e-008 0
    outer loop
      vertex 30 18.5563 0
      vertex 30 18.5563 4
      vertex 30 17.6667 0
    endloop
  endfacet
  facet normal 0.707107 0.707107 0
    outer loop
      vertex 23.5563 25 4
      vertex 30 18.5563 4
      vertex 30 18.5563 0
    endloop
  endfacet
  facet normal 0.707107 0.707107 0
    outer loop
      vertex 23.5563 25 0
      vertex 23.5563 25 4
      vertex 30 18.5563 0
    endloop
  endfacet
  facet normal -9.05668e-008 1 0
    outer loop
      vertex 23.5563 25 4
      vertex 23.5563 25 0
      vertex 14.4437 25 4
    endloop
  endfacet
  facet normal -9.05668e-008 1 0
    outer loop
      vertex 14.4437 25 4
      vertex 23.5563 25 0
      vertex 14.4437 25 0
    endloop
  endfacet
  facet normal -0.707107 0.707107 0
    outer loop
      vertex 14.4437 25 4
      vertex 14.4437 25 0
      vertex 8 18.5563 4
    endloop
  endfacet
  facet normal -0.707107 0.707107 0
    outer loop
      vertex 8 18.5563 4
      vertex 14.4437 25 0
      vertex 8 18.5563 0
    endloop
  endfacet
  facet normal 0.216894 0.976195 0
    outer loop
      vertex 8 18.5563 3
      vertex 8 18.5563 0
      vertex -12 23 6
    endloop
  endfacet
  facet normal 0.216894 0.976195 0
    outer loop
      vertex -12 23 6
      vertex 8 18.5563 0
      vertex -12 23 0
    endloop
  endfacet
  facet normal 0.707107 1.00333e-007 -0.707107
    outer loop
      vertex -24.125 14 0.9
      vertex -24.125 12.1958 0.899999
      vertex -24.125 15.8042 0.9
    endloop
  endfacet
  facet normal 0.707107 1.00333e-007 -0.707107
    outer loop
      vertex -25.025 11.6762 0
      vertex -24.125 12.1958 0.899999
      vertex -24.125 12.1958 0.9
    endloop
  endfacet
  facet normal 0.707107 1.00333e-007 -0.707107
    outer loop
      vertex -24.125 15.8042 0.9
      vertex -24.125 12.1958 0.899999
      vertex -25.025 11.6762 0
    endloop
  endfacet
  facet normal 0.707107 1.00333e-007 -0.707107
    outer loop
      vertex -24.125 15.8042 0.9
      vertex -25.025 11.6762 0
      vertex -25.025 12.037 0
    endloop
  endfacet
  facet normal 0.353553 0.612372 -0.707107
    outer loop
      vertex -24.125 12.1958 0.9
      vertex -21.3125 9.53275 0
      vertex -25.025 11.6762 0
    endloop
  endfacet
  facet normal 0.707107 -1.79467e-008 -0.707107
    outer loop
      vertex -25.025 16.3238 0
      vertex -24.125 15.8042 0.9
      vertex -25.025 12.037 0
    endloop
  endfacet
  facet normal 0.353553 -0.612372 -0.707107
    outer loop
      vertex -21 18.6477 0
      vertex -21 17.6084 0.9
      vertex -23.1607 16.361 0.9
    endloop
  endfacet
  facet normal 0.353553 -0.612372 -0.707107
    outer loop
      vertex -21 18.6477 0
      vertex -23.1607 16.361 0.9
      vertex -24.125 15.8042 0.9
    endloop
  endfacet
  facet normal 0.353553 -0.612372 -0.707107
    outer loop
      vertex -21 18.6477 0
      vertex -24.125 15.8042 0.9
      vertex -25.025 16.3238 0
    endloop
  endfacet
  facet normal -0.353554 -0.612372 -0.707107
    outer loop
      vertex -17.875 15.8042 0.9
      vertex -18.8393 16.361 0.9
      vertex -20.6875 18.4672 0
    endloop
  endfacet
  facet normal -0.353554 -0.612372 -0.707107
    outer loop
      vertex -20.6875 18.4672 0
      vertex -18.8393 16.361 0.9
      vertex -21 17.6084 0.9
    endloop
  endfacet
  facet normal -0.353554 -0.612372 -0.707107
    outer loop
      vertex -20.6875 18.4672 0
      vertex -21 17.6084 0.9
      vertex -21 18.6477 0
    endloop
  endfacet
  facet normal -0.353553 -0.612372 -0.707107
    outer loop
      vertex -16.975 16.3238 0
      vertex -17.875 15.8042 0.9
      vertex -20.6875 18.4672 0
    endloop
  endfacet
  facet normal -0.707107 -1.00333e-007 -0.707107
    outer loop
      vertex -16.975 15.963 0
      vertex -17.875 12.1958 0.9
      vertex -16.975 16.3238 0
    endloop
  endfacet
  facet normal -0.707107 -1.00333e-007 -0.707107
    outer loop
      vertex -16.975 16.3238 0
      vertex -17.875 12.1958 0.9
      vertex -17.875 14 0.9
    endloop
  endfacet
  facet normal -0.707107 -1.00333e-007 -0.707107
    outer loop
      vertex -16.975 16.3238 0
      vertex -17.875 14 0.9
      vertex -17.875 15.8042 0.899999
    endloop
  endfacet
  facet normal -0.707107 -1.00333e-007 -0.707107
    outer loop
      vertex -16.975 16.3238 0
      vertex -17.875 15.8042 0.899999
      vertex -17.875 15.8042 0.9
    endloop
  endfacet
  facet normal -0.707107 1.79467e-008 -0.707107
    outer loop
      vertex -16.975 15.963 0
      vertex -16.975 11.6762 0
      vertex -17.875 12.1958 0.9
    endloop
  endfacet
  facet normal -0.353553 0.612372 -0.707107
    outer loop
      vertex -21 10.3916 0.9
      vertex -18.8393 11.639 0.9
      vertex -17.875 12.1958 0.9
    endloop
  endfacet
  facet normal -0.353553 0.612372 -0.707107
    outer loop
      vertex -21 10.3916 0.9
      vertex -17.875 12.1958 0.9
      vertex -16.975 11.6762 0
    endloop
  endfacet
  facet normal -0.353553 0.612372 -0.707107
    outer loop
      vertex -21 10.3916 0.9
      vertex -16.975 11.6762 0
      vertex -21 9.35233 0
    endloop
  endfacet
  facet normal 0.353554 0.612372 -0.707107
    outer loop
      vertex -21 10.3916 0.9
      vertex -21 9.35233 0
      vertex -23.1607 11.639 0.9
    endloop
  endfacet
  facet normal 0.353554 0.612372 -0.707107
    outer loop
      vertex -23.1607 11.639 0.9
      vertex -21 9.35233 0
      vertex -21.3125 9.53275 0
    endloop
  endfacet
  facet normal 0.353554 0.612372 -0.707107
    outer loop
      vertex -23.1607 11.639 0.9
      vertex -21.3125 9.53275 0
      vertex -24.125 12.1958 0.9
    endloop
  endfacet
  facet normal -3.89492e-017 0.496139 0.868243
    outer loop
      vertex -12 23 6
      vertex -30 23 6
      vertex -26.5 19.5 8
    endloop
  endfacet
  facet normal -3.89492e-017 0.496139 0.868243
    outer loop
      vertex -15.5 19.5 8
      vertex -12 23 6
      vertex -26.5 19.5 8
    endloop
  endfacet
  facet normal -0.496139 -3.89492e-017 0.868243
    outer loop
      vertex -26.5 19.5 8
      vertex -30 23 6
      vertex -30 5 6
    endloop
  endfacet
  facet normal -0.496139 -3.89492e-017 0.868243
    outer loop
      vertex -26.5 8.5 8
      vertex -26.5 19.5 8
      vertex -30 5 6
    endloop
  endfacet
  facet normal 3.89492e-017 -0.496139 0.868243
    outer loop
      vertex -26.5 8.5 8
      vertex -30 5 6
      vertex -12 5 6
    endloop
  endfacet
  facet normal 3.89492e-017 -0.496139 0.868243
    outer loop
      vertex -15.5 8.5 8
      vertex -26.5 8.5 8
      vertex -12 5 6
    endloop
  endfacet
  facet normal 0.496139 3.89492e-017 0.868243
    outer loop
      vertex -12 23 6
      vertex -15.5 19.5 8
      vertex -15.5 8.5 8
    endloop
  endfacet
  facet normal 0.496139 3.89492e-017 0.868243
    outer loop
      vertex -12 5 6
      vertex -12 23 6
      vertex -15.5 8.5 8
    endloop
  endfacet
  facet normal 0 0 1
    outer loop
      vertex 8 9.44365 4
      vertex 14.4437 3 4
      vertex 23.5563 3 4
    endloop
  endfacet
  facet normal 0 0 1
    outer loop
      vertex 16.7218 8.5 4
      vertex 8 9.44365 4
      vertex 23.5563 3 4
    endloop
  endfacet
  facet normal 0 0 1
    outer loop
      vertex 16.7218 8.5 4
      vertex 13.5 11.7218 4
      vertex 8 9.44365 4
    endloop
  endfacet
  facet normal 0 0 1
    outer loop
      vertex 30 9.44365 4
      vertex 21.2782 8.5 4
      vertex 23.5563 3 4
    endloop
  endfacet
  facet normal 0 0 1
    outer loop
      vertex 21.2782 8.5 4
      vertex 16.7218 8.5 4
      vertex 23.5563 3 4
    endloop
  endfacet
  facet normal 0 0 1
    outer loop
      vertex 13.5 16.2782 4
      vertex 8 9.44365 4
      vertex 13.5 11.7218 4
    endloop
  endfacet
  facet normal 0 0 1
    outer loop
      vertex 14.4437 25 4
      vertex 8 9.44365 4
      vertex 13.5 16.2782 4
    endloop
  endfacet
  facet normal 0 0 1
    outer loop
      vertex 14.4437 25 4
      vertex 13.5 16.2782 4
      vertex 16.7218 19.5 4
    endloop
  endfacet
  facet normal 0 0 1
    outer loop
      vertex 23.5563 25 4
      vertex 16.7218 19.5 4
      vertex 21.2782 19.5 4
    endloop
  endfacet
  facet normal 0 0 1
    outer loop
      vertex 30 17.6667 4
      vertex 21.2782 19.5 4
      vertex 23.1115 17.6667 4
    endloop
  endfacet
  facet normal 0 0 1
    outer loop
      vertex 30 18.5563 4
      vertex 21.2782 19.5 4
      vertex 30 17.6667 4
    endloop
  endfacet
  facet normal 0 0 1
    outer loop
      vertex 23.5563 25 4
      vertex 21.2782 19.5 4
      vertex 30 18.5563 4
    endloop
  endfacet
  facet normal 0 0 1
    outer loop
      vertex 14.4437 25 4
      vertex 16.7218 19.5 4
      vertex 23.5563 25 4
    endloop
  endfacet
  facet normal 0 0 1
    outer loop
      vertex 8 18.5563 4
      vertex 8 9.44365 4
      vertex 14.4437 25 4
    endloop
  endfacet
  facet normal 0 0 1
    outer loop
      vertex 23.1115 10.3333 4
      vertex 30 9.44365 4
      vertex 30 10.3333 4
    endloop
  endfacet
  facet normal 0 0 1
    outer loop
      vertex 23.1115 10.3333 4
      vertex 21.2782 8.5 4
      vertex 30 9.44365 4
    endloop
  endfacet
  facet normal 0.5 -0.866025 0
    outer loop
      vertex -23.1607 16.361 0.9
      vertex -23.1607 16.361 7.1
      vertex -24.125 15.8042 7.1
    endloop
  endfacet
  facet normal 0.5 -0.866025 0
    outer loop
      vertex -24.125 15.8042 0.9
      vertex -23.1607 16.361 0.9
      vertex -24.125 15.8042 7.1
    endloop
  endfacet
  facet normal 1 1.41892e-007 0
    outer loop
      vertex -24.125 15.8042 7.1
      vertex -24.125 14 7.1
      vertex -24.125 14 0.9
    endloop
  endfacet
  facet normal 1 1.41892e-007 0
    outer loop
      vertex -24.125 15.8042 0.9
      vertex -24.125 15.8042 7.1
      vertex -24.125 14 0.9
    endloop
  endfacet
  facet normal 0.5 0.866025 -1.06054e-016
    outer loop
      vertex -23.1607 11.639 7.1
      vertex -23.1607 11.639 0.9
      vertex -24.125 12.1958 7.1
    endloop
  endfacet
  facet normal 0.5 0.866025 -1.06054e-016
    outer loop
      vertex -24.125 12.1958 7.1
      vertex -23.1607 11.639 0.9
      vertex -24.125 12.1958 0.9
    endloop
  endfacet
  facet normal 0.5 0.866025 -1.06054e-016
    outer loop
      vertex -24.125 12.1958 7.1
      vertex -24.125 12.1958 0.9
      vertex -24.125 12.1958 0.899999
    endloop
  endfacet
  facet normal 1 -1.41892e-007 1.73762e-023
    outer loop
      vertex -24.125 14 0.9
      vertex -24.125 14 7.1
      vertex -24.125 12.1958 7.1
    endloop
  endfacet
  facet normal 1 -1.41892e-007 1.73762e-023
    outer loop
      vertex -24.125 12.1958 0.899999
      vertex -24.125 14 0.9
      vertex -24.125 12.1958 7.1
    endloop
  endfacet
  facet normal 0.5 -0.866025 1.06054e-016
    outer loop
      vertex -23.1607 16.361 0.9
      vertex -21 17.6084 0.9
      vertex -21 17.6084 7.1
    endloop
  endfacet
  facet normal 0.5 -0.866025 1.06054e-016
    outer loop
      vertex -23.1607 16.361 7.1
      vertex -23.1607 16.361 0.9
      vertex -21 17.6084 7.1
    endloop
  endfacet
  facet normal -0.5 -0.866025 0
    outer loop
      vertex -18.8393 16.361 0.9
      vertex -18.8393 16.361 7.1
      vertex -21 17.6084 7.1
    endloop
  endfacet
  facet normal -0.5 -0.866025 0
    outer loop
      vertex -21 17.6084 0.9
      vertex -18.8393 16.361 0.9
      vertex -21 17.6084 7.1
    endloop
  endfacet
  facet normal -0.5 -0.866025 1.06054e-016
    outer loop
      vertex -17.875 15.8042 7.1
      vertex -18.8393 16.361 0.9
      vertex -17.875 15.8042 0.9
    endloop
  endfacet
  facet normal -0.5 -0.866025 1.06054e-016
    outer loop
      vertex -17.875 15.8042 0.899999
      vertex -17.875 15.8042 7.1
      vertex -17.875 15.8042 0.9
    endloop
  endfacet
  facet normal -0.5 -0.866025 1.06054e-016
    outer loop
      vertex -18.8393 16.361 7.1
      vertex -18.8393 16.361 0.9
      vertex -17.875 15.8042 7.1
    endloop
  endfacet
  facet normal -1 1.41892e-007 -1.73762e-023
    outer loop
      vertex -17.875 15.8042 0.899999
      vertex -17.875 14 0.9
      vertex -17.875 15.8042 7.1
    endloop
  endfacet
  facet normal -1 1.41892e-007 -1.73762e-023
    outer loop
      vertex -17.875 15.8042 7.1
      vertex -17.875 14 0.9
      vertex -17.875 14 7.1
    endloop
  endfacet
  facet normal -1 -1.41892e-007 0
    outer loop
      vertex -17.875 12.1958 0.9
      vertex -17.875 12.1958 7.1
      vertex -17.875 14 0.9
    endloop
  endfacet
  facet normal -1 -1.41892e-007 0
    outer loop
      vertex -17.875 14 0.9
      vertex -17.875 12.1958 7.1
      vertex -17.875 14 7.1
    endloop
  endfacet
  facet normal -0.5 0.866025 0
    outer loop
      vertex -17.875 12.1958 0.9
      vertex -18.8393 11.639 0.9
      vertex -17.875 12.1958 7.1
    endloop
  endfacet
  facet normal -0.5 0.866025 0
    outer loop
      vertex -18.8393 11.639 0.9
      vertex -18.8393 11.639 7.1
      vertex -17.875 12.1958 7.1
    endloop
  endfacet
  facet normal 0.5 0.866025 0
    outer loop
      vertex -21 10.3916 0.9
      vertex -23.1607 11.639 0.9
      vertex -21 10.3916 7.1
    endloop
  endfacet
  facet normal 0.5 0.866025 0
    outer loop
      vertex -21 10.3916 7.1
      vertex -23.1607 11.639 0.9
      vertex -23.1607 11.639 7.1
    endloop
  endfacet
  facet normal -0.5 0.866025 -1.06054e-016
    outer loop
      vertex -18.8393 11.639 7.1
      vertex -18.8393 11.639 0.9
      vertex -21 10.3916 7.1
    endloop
  endfacet
  facet normal -0.5 0.866025 -1.06054e-016
    outer loop
      vertex -21 10.3916 7.1
      vertex -18.8393 11.639 0.9
      vertex -21 10.3916 0.9
    endloop
  endfacet
  facet normal 0 0 1
    outer loop
      vertex -25.025 15.963 8
      vertex -26.5 19.5 8
      vertex -26.5 8.5 8
    endloop
  endfacet
  facet normal 0 0 1
    outer loop
      vertex -25.025 11.6762 8
      vertex -25.025 15.963 8
      vertex -26.5 8.5 8
    endloop
  endfacet
  facet normal 0 0 1
    outer loop
      vertex -25.025 16.3238 8
      vertex -26.5 19.5 8
      vertex -25.025 15.963 8
    endloop
  endfacet
  facet normal 0 0 1
    outer loop
      vertex -21.3125 18.4672 8
      vertex -26.5 19.5 8
      vertex -25.025 16.3238 8
    endloop
  endfacet
  facet normal 0 0 1
    outer loop
      vertex -21 9.35233 8
      vertex -25.025 11.6762 8
      vertex -26.5 8.5 8
    endloop
  endfacet
  facet normal 0 0 1
    outer loop
      vertex -21 18.6477 8
      vertex -26.5 19.5 8
      vertex -21.3125 18.4672 8
    endloop
  endfacet
  facet normal 0 0 1
    outer loop
      vertex -15.5 19.5 8
      vertex -26.5 19.5 8
      vertex -21 18.6477 8
    endloop
  endfacet
  facet normal 0 0 1
    outer loop
      vertex -15.5 8.5 8
      vertex -15.5 19.5 8
      vertex -16.975 16.3238 8
    endloop
  endfacet
  facet normal 0 0 1
    outer loop
      vertex -15.5 8.5 8
      vertex -16.975 16.3238 8
      vertex -16.975 12.037 8
    endloop
  endfacet
  facet normal 0 0 1
    outer loop
      vertex -15.5 8.5 8
      vertex -16.975 12.037 8
      vertex -16.975 11.6762 8
    endloop
  endfacet
  facet normal 0 0 1
    outer loop
      vertex -15.5 8.5 8
      vertex -16.975 11.6762 8
      vertex -20.6875 9.53275 8
    endloop
  endfacet
  facet normal 0 0 1
    outer loop
      vertex -15.5 8.5 8
      vertex -21 9.35233 8
      vertex -26.5 8.5 8
    endloop
  endfacet
  facet normal 0 0 1
    outer loop
      vertex -15.5 8.5 8
      vertex -20.6875 9.53275 8
      vertex -21 9.35233 8
    endloop
  endfacet
  facet normal 0 0 1
    outer loop
      vertex -21 18.6477 8
      vertex -16.975 16.3238 8
      vertex -15.5 19.5 8
    endloop
  endfacet
  facet normal 0.707107 -1.00333e-007 0.707107
    outer loop
      vertex -24.125 12.1958 7.1
      vertex -24.125 14 7.1
      vertex -24.125 15.8042 7.1
    endloop
  endfacet
  facet normal 0.707107 -1.00333e-007 0.707107
    outer loop
      vertex -25.025 16.3238 8
      vertex -24.125 12.1958 7.1
      vertex -24.125 15.8042 7.1
    endloop
  endfacet
  facet normal 0.707107 -1.00333e-007 0.707107
    outer loop
      vertex -25.025 16.3238 8
      vertex -25.025 15.963 8
      vertex -24.125 12.1958 7.1
    endloop
  endfacet
  facet normal 0.353553 -0.612372 0.707107
    outer loop
      vertex -25.025 16.3238 8
      vertex -24.125 15.8042 7.1
      vertex -21.3125 18.4672 8
    endloop
  endfacet
  facet normal 0.353554 -0.612372 0.707107
    outer loop
      vertex -23.1607 16.361 7.1
      vertex -21 17.6084 7.1
      vertex -21 18.6477 8
    endloop
  endfacet
  facet normal 0.353554 -0.612372 0.707107
    outer loop
      vertex -24.125 15.8042 7.1
      vertex -23.1607 16.361 7.1
      vertex -21.3125 18.4672 8
    endloop
  endfacet
  facet normal 0.353554 -0.612372 0.707107
    outer loop
      vertex -21.3125 18.4672 8
      vertex -23.1607 16.361 7.1
      vertex -21 18.6477 8
    endloop
  endfacet
  facet normal 0.353553 0.612372 0.707107
    outer loop
      vertex -23.1607 11.639 7.1
      vertex -21 9.35233 8
      vertex -21 10.3916 7.1
    endloop
  endfacet
  facet normal 0.353553 0.612372 0.707107
    outer loop
      vertex -24.125 12.1958 7.1
      vertex -21 9.35233 8
      vertex -23.1607 11.639 7.1
    endloop
  endfacet
  facet normal 0.353553 0.612372 0.707107
    outer loop
      vertex -25.025 11.6762 8
      vertex -21 9.35233 8
      vertex -24.125 12.1958 7.1
    endloop
  endfacet
  facet normal 0.707107 1.79467e-008 0.707107
    outer loop
      vertex -25.025 11.6762 8
      vertex -24.125 12.1958 7.1
      vertex -25.025 15.963 8
    endloop
  endfacet
  facet normal -0.353553 -0.612372 0.707107
    outer loop
      vertex -17.875 15.8042 7.1
      vertex -21 17.6084 7.1
      vertex -18.8393 16.361 7.1
    endloop
  endfacet
  facet normal -0.353553 -0.612372 0.707107
    outer loop
      vertex -16.975 16.3238 8
      vertex -21 17.6084 7.1
      vertex -17.875 15.8042 7.1
    endloop
  endfacet
  facet normal -0.353553 -0.612372 0.707107
    outer loop
      vertex -21 18.6477 8
      vertex -21 17.6084 7.1
      vertex -16.975 16.3238 8
    endloop
  endfacet
  facet normal -0.707107 -1.79467e-008 0.707107
    outer loop
      vertex -16.975 12.037 8
      vertex -16.975 16.3238 8
      vertex -17.875 15.8042 7.1
    endloop
  endfacet
  facet normal -0.707107 1.00333e-007 0.707107
    outer loop
      vertex -16.975 11.6762 8
      vertex -16.975 12.037 8
      vertex -17.875 15.8042 7.1
    endloop
  endfacet
  facet normal -0.707107 1.00333e-007 0.707107
    outer loop
      vertex -17.875 12.1958 7.1
      vertex -16.975 11.6762 8
      vertex -17.875 14 7.1
    endloop
  endfacet
  facet normal -0.707107 1.00333e-007 0.707107
    outer loop
      vertex -17.875 14 7.1
      vertex -16.975 11.6762 8
      vertex -17.875 15.8042 7.1
    endloop
  endfacet
  facet normal -0.353553 0.612372 0.707107
    outer loop
      vertex -20.6875 9.53275 8
      vertex -16.975 11.6762 8
      vertex -17.875 12.1958 7.1
    endloop
  endfacet
  facet normal -0.353554 0.612372 0.707107
    outer loop
      vertex -20.6875 9.53275 8
      vertex -17.875 12.1958 7.1
      vertex -18.8393 11.639 7.1
    endloop
  endfacet
  facet normal -0.353554 0.612372 0.707107
    outer loop
      vertex -21 9.35233 8
      vertex -20.6875 9.53275 8
      vertex -21 10.3916 7.1
    endloop
  endfacet
  facet normal -0.353554 0.612372 0.707107
    outer loop
      vertex -21 10.3916 7.1
      vertex -20.6875 9.53275 8
      vertex -18.8393 11.639 7.1
    endloop
  endfacet
  facet normal 0 0 -1
    outer loop
      vertex -30 -18.5563 0
      vertex -30 -17.6667 0
      vertex -23.5563 -25 0
    endloop
  endfacet
  facet normal 0 0 -1
    outer loop
      vertex -23.5563 -25 0
      vertex -30 -17.6667 0
      vertex -23.1115 -17.6667 0
    endloop
  endfacet
  facet normal 0 0 -1
    outer loop
      vertex -23.5563 -25 0
      vertex -23.1115 -17.6667 0
      vertex -21.2782 -19.5 0
    endloop
  endfacet
  facet normal 0 0 -1
    outer loop
      vertex -23.5563 -25 0
      vertex -21.2782 -19.5 0
      vertex -16.7218 -19.5 0
    endloop
  endfacet
  facet normal 0 0 -1
    outer loop
      vertex -16.7218 -19.5 0
      vertex 12 -5 0
      vertex -23.5563 -25 0
    endloop
  endfacet
  facet normal 0 0 -1
    outer loop
      vertex -21.2782 -8.5 0
      vertex -23.1115 -10.3333 0
      vertex -30 -10.3333 0
    endloop
  endfacet
  facet normal 0 0 -1
    outer loop
      vertex -21.2782 -8.5 0
      vertex -30 -10.3333 0
      vertex -30 -9.44365 0
    endloop
  endfacet
  facet normal 0 0 -1
    outer loop
      vertex -21.2782 -8.5 0
      vertex -30 -9.44365 0
      vertex -23.5563 -3 0
    endloop
  endfacet
  facet normal 0 0 -1
    outer loop
      vertex -21.2782 -8.5 0
      vertex -23.5563 -3 0
      vertex -16.7218 -8.5 0
    endloop
  endfacet
  facet normal 0 0 -1
    outer loop
      vertex -16.7218 -8.5 0
      vertex -23.5563 -3 0
      vertex -14.4437 -3 0
    endloop
  endfacet
  facet normal 0 0 -1
    outer loop
      vertex -16.7218 -8.5 0
      vertex -14.4437 -3 0
      vertex -13.5 -11.7218 0
    endloop
  endfacet
  facet normal 0 0 -1
    outer loop
      vertex -13.5 -11.7218 0
      vertex -14.4437 -3 0
      vertex -8 -9.44365 0
    endloop
  endfacet
  facet normal 0 0 -1
    outer loop
      vertex -13.5 -11.7218 0
      vertex -8 -9.44365 0
      vertex -13.5 -16.2782 0
    endloop
  endfacet
  facet normal 0 0 -1
    outer loop
      vertex -13.5 -16.2782 0
      vertex -8 -9.44365 0
      vertex 12 -5 0
    endloop
  endfacet
  facet normal 0 0 -1
    outer loop
      vertex -13.5 -16.2782 0
      vertex 12 -5 0
      vertex -16.7218 -19.5 0
    endloop
  endfacet
  facet normal 0 0 -1
    outer loop
      vertex -8 -18.5563 0
      vertex 12 -5 0
      vertex 30 -5 0
    endloop
  endfacet
  facet normal 0 0 -1
    outer loop
      vertex 25.025 -16.3238 0
      vertex 30 -5 0
      vertex 30 -23 0
    endloop
  endfacet
  facet normal 0 0 -1
    outer loop
      vertex -8 -16.4833 0
      vertex 12 -5 0
      vertex -8 -18.5563 0
    endloop
  endfacet
  facet normal 0 0 -1
    outer loop
      vertex -8 -18.5563 0
      vertex -23.5563 -25 0
      vertex -8 -16.4833 0
    endloop
  endfacet
  facet normal 0 0 -1
    outer loop
      vertex -23.5563 -25 0
      vertex 12 -5 0
      vertex -8 -16.4833 0
    endloop
  endfacet
  facet normal 0 0 -1
    outer loop
      vertex -14.4437 -25 0
      vertex -23.5563 -25 0
      vertex -8 -18.5563 0
    endloop
  endfacet
  facet normal 0 0 -1
    outer loop
      vertex 21 -18.6477 0
      vertex 12 -23 0
      vertex 16.975 -16.3238 0
    endloop
  endfacet
  facet normal 0 0 -1
    outer loop
      vertex 16.975 -11.6762 0
      vertex 16.975 -12.037 0
      vertex 12 -23 0
    endloop
  endfacet
  facet normal 0 0 -1
    outer loop
      vertex 16.975 -12.037 0
      vertex 16.975 -16.3238 0
      vertex 12 -23 0
    endloop
  endfacet
  facet normal 0 0 -1
    outer loop
      vertex 21 -9.35233 0
      vertex 30 -5 0
      vertex 25.025 -11.6762 0
    endloop
  endfacet
  facet normal 0 0 -1
    outer loop
      vertex 12 -23 0
      vertex 21 -18.6477 0
      vertex 30 -23 0
    endloop
  endfacet
  facet normal 0 0 -1
    outer loop
      vertex 21 -18.6477 0
      vertex 21.3125 -18.4672 0
      vertex 30 -23 0
    endloop
  endfacet
  facet normal 0 0 -1
    outer loop
      vertex 25.025 -15.963 0
      vertex 30 -5 0
      vertex 25.025 -16.3238 0
    endloop
  endfacet
  facet normal 0 0 -1
    outer loop
      vertex 21.3125 -18.4672 0
      vertex 25.025 -16.3238 0
      vertex 30 -23 0
    endloop
  endfacet
  facet normal 0 0 -1
    outer loop
      vertex 25.025 -11.6762 0
      vertex 30 -5 0
      vertex 25.025 -15.963 0
    endloop
  endfacet
  facet normal 0 0 -1
    outer loop
      vertex 21 -9.35233 0
      vertex 20.6875 -9.53275 0
      vertex 16.975 -11.6762 0
    endloop
  endfacet
  facet normal 0 0 -1
    outer loop
      vertex -8 -18.5563 0
      vertex 30 -5 0
      vertex 21 -9.35233 0
    endloop
  endfacet
  facet normal 0 0 -1
    outer loop
      vertex -8 -18.5563 0
      vertex 21 -9.35233 0
      vertex 16.975 -11.6762 0
    endloop
  endfacet
  facet normal 0 0 -1
    outer loop
      vertex -8 -18.5563 0
      vertex 16.975 -11.6762 0
      vertex 12 -23 0
    endloop
  endfacet
  facet normal -1 9.05668e-008 0
    outer loop
      vertex -30 -18.5563 0
      vertex -30 -18.5563 4
      vertex -30 -17.6667 0
    endloop
  endfacet
  facet normal -1 9.05668e-008 0
    outer loop
      vertex -30 -17.6667 0
      vertex -30 -18.5563 4
      vertex -30 -17.6667 4
    endloop
  endfacet
  facet normal -0.707107 -0.707107 0
    outer loop
      vertex -30 -18.5563 4
      vertex -30 -18.5563 0
      vertex -23.5563 -25 0
    endloop
  endfacet
  facet normal -0.707107 -0.707107 0
    outer loop
      vertex -23.5563 -25 4
      vertex -30 -18.5563 4
      vertex -23.5563 -25 0
    endloop
  endfacet
  facet normal -9.05668e-008 -1 0
    outer loop
      vertex -23.5563 -25 4
      vertex -23.5563 -25 0
      vertex -14.4437 -25 0
    endloop
  endfacet
  facet normal -9.05668e-008 -1 0
    outer loop
      vertex -14.4437 -25 4
      vertex -23.5563 -25 4
      vertex -14.4437 -25 0
    endloop
  endfacet
  facet normal 0.707107 -0.707107 0
    outer loop
      vertex -14.4437 -25 4
      vertex -14.4437 -25 0
      vertex -8 -18.5563 0
    endloop
  endfacet
  facet normal 0.707107 -0.707107 0
    outer loop
      vertex -8 -18.5563 4
      vertex -14.4437 -25 4
      vertex -8 -18.5563 0
    endloop
  endfacet
  facet normal 1 -9.05668e-008 0
    outer loop
      vertex -8 -18.5563 4
      vertex -8 -18.5563 0
      vertex -8 -16.4833 0
    endloop
  endfacet
  facet normal 1 -9.05668e-008 0
    outer loop
      vertex -8 -9.44365 3
      vertex -8 -18.5563 4
      vertex -8 -16.4833 3
    endloop
  endfacet
  facet normal 1 -9.05668e-008 0
    outer loop
      vertex -8 -16.4833 3
      vertex -8 -18.5563 4
      vertex -8 -16.4833 0
    endloop
  endfacet
  facet normal 1 -9.05668e-008 0
    outer loop
      vertex -8 -9.44365 4
      vertex -8 -18.5563 4
      vertex -8 -9.44365 3
    endloop
  endfacet
  facet normal 1 -9.05668e-008 0
    outer loop
      vertex -8 -9.44365 4
      vertex -8 -9.44365 3
      vertex -8 -9.44365 0
    endloop
  endfacet
  facet normal -1 -1.22461e-016 0
    outer loop
      vertex -8 -16.4833 0
      vertex -8 -18.5563 0
      vertex -8 -16.4833 3
    endloop
  endfacet
  facet normal -1 -1.22461e-016 0
    outer loop
      vertex -8 -16.4833 3
      vertex -8 -18.5563 0
      vertex -8 -18.5563 3
    endloop
  endfacet
  facet normal -0.216894 -0.976195 0
    outer loop
      vertex -8 -18.5563 3
      vertex -8 -18.5563 0
      vertex 12 -23 0
    endloop
  endfacet
  facet normal -0.216894 -0.976195 0
    outer loop
      vertex 12 -23 6
      vertex -8 -18.5563 3
      vertex 12 -23 0
    endloop
  endfacet
  facet normal 1.22461e-016 -1 0
    outer loop
      vertex 12 -23 6
      vertex 12 -23 0
      vertex 30 -23 0
    endloop
  endfacet
  facet normal 1.22461e-016 -1 0
    outer loop
      vertex 30 -23 6
      vertex 12 -23 6
      vertex 30 -23 0
    endloop
  endfacet
  facet normal 1 1.22461e-016 0
    outer loop
      vertex 30 -23 0
      vertex 30 -5 0
      vertex 30 -5 6
    endloop
  endfacet
  facet normal 1 1.22461e-016 0
    outer loop
      vertex 30 -23 6
      vertex 30 -23 0
      vertex 30 -5 6
    endloop
  endfacet
  facet normal -1.22461e-016 1 0
    outer loop
      vertex 12 -5 0
      vertex 12 -5 6
      vertex 30 -5 0
    endloop
  endfacet
  facet normal -1.22461e-016 1 0
    outer loop
      vertex 30 -5 0
      vertex 12 -5 6
      vertex 30 -5 6
    endloop
  endfacet
  facet normal -0.216894 0.976195 0
    outer loop
      vertex -8 -9.44365 0
      vertex -8 -9.44365 3
      vertex 12 -5 0
    endloop
  endfacet
  facet normal -0.216894 0.976195 0
    outer loop
      vertex 12 -5 0
      vertex -8 -9.44365 3
      vertex 12 -5 6
    endloop
  endfacet
  facet normal 0.707107 0.707107 0
    outer loop
      vertex -14.4437 -3 0
      vertex -14.4437 -3 4
      vertex -8 -9.44365 0
    endloop
  endfacet
  facet normal 0.707107 0.707107 0
    outer loop
      vertex -8 -9.44365 0
      vertex -14.4437 -3 4
      vertex -8 -9.44365 4
    endloop
  endfacet
  facet normal 9.05668e-008 1 0
    outer loop
      vertex -23.5563 -3 0
      vertex -23.5563 -3 4
      vertex -14.4437 -3 0
    endloop
  endfacet
  facet normal 9.05668e-008 1 0
    outer loop
      vertex -14.4437 -3 0
      vertex -23.5563 -3 4
      vertex -14.4437 -3 4
    endloop
  endfacet
  facet normal -0.707107 0.707107 0
    outer loop
      vertex -30 -9.44365 0
      vertex -30 -9.44365 4
      vertex -23.5563 -3 0
    endloop
  endfacet
  facet normal -0.707107 0.707107 0
    outer loop
      vertex -23.5563 -3 0
      vertex -30 -9.44365 4
      vertex -23.5563 -3 4
    endloop
  endfacet
  facet normal -1 9.05668e-008 0
    outer loop
      vertex -30 -10.3333 0
      vertex -30 -10.3333 4
      vertex -30 -9.44365 0
    endloop
  endfacet
  facet normal -1 9.05668e-008 0
    outer loop
      vertex -30 -9.44365 0
      vertex -30 -10.3333 4
      vertex -30 -9.44365 4
    endloop
  endfacet
  facet normal 1.22461e-016 -1 0
    outer loop
      vertex -23.1115 -10.3333 0
      vertex -23.1115 -10.3333 4
      vertex -30 -10.3333 4
    endloop
  endfacet
  facet normal 1.22461e-016 -1 0
    outer loop
      vertex -30 -10.3333 0
      vertex -23.1115 -10.3333 0
      vertex -30 -10.3333 4
    endloop
  endfacet
  facet normal 0.707107 -0.707107 0
    outer loop
      vertex -21.2782 -8.5 0
      vertex -21.2782 -8.5 4
      vertex -23.1115 -10.3333 4
    endloop
  endfacet
  facet normal 0.707107 -0.707107 0
    outer loop
      vertex -23.1115 -10.3333 0
      vertex -21.2782 -8.5 0
      vertex -23.1115 -10.3333 4
    endloop
  endfacet
  facet normal -9.05668e-008 -1 0
    outer loop
      vertex -16.7218 -8.5 0
      vertex -16.7218 -8.5 4
      vertex -21.2782 -8.5 4
    endloop
  endfacet
  facet normal -9.05668e-008 -1 0
    outer loop
      vertex -21.2782 -8.5 0
      vertex -16.7218 -8.5 0
      vertex -21.2782 -8.5 4
    endloop
  endfacet
  facet normal -0.707107 -0.707107 0
    outer loop
      vertex -13.5 -11.7218 0
      vertex -13.5 -11.7218 4
      vertex -16.7218 -8.5 4
    endloop
  endfacet
  facet normal -0.707107 -0.707107 0
    outer loop
      vertex -16.7218 -8.5 0
      vertex -13.5 -11.7218 0
      vertex -16.7218 -8.5 4
    endloop
  endfacet
  facet normal -1 9.05668e-008 0
    outer loop
      vertex -13.5 -11.7218 4
      vertex -13.5 -11.7218 0
      vertex -13.5 -16.2782 4
    endloop
  endfacet
  facet normal -1 9.05668e-008 0
    outer loop
      vertex -13.5 -16.2782 4
      vertex -13.5 -11.7218 0
      vertex -13.5 -16.2782 0
    endloop
  endfacet
  facet normal -0.707107 0.707107 0
    outer loop
      vertex -13.5 -16.2782 4
      vertex -13.5 -16.2782 0
      vertex -16.7218 -19.5 4
    endloop
  endfacet
  facet normal -0.707107 0.707107 0
    outer loop
      vertex -16.7218 -19.5 4
      vertex -13.5 -16.2782 0
      vertex -16.7218 -19.5 0
    endloop
  endfacet
  facet normal 9.05668e-008 1 0
    outer loop
      vertex -16.7218 -19.5 4
      vertex -16.7218 -19.5 0
      vertex -21.2782 -19.5 4
    endloop
  endfacet
  facet normal 9.05668e-008 1 0
    outer loop
      vertex -21.2782 -19.5 4
      vertex -16.7218 -19.5 0
      vertex -21.2782 -19.5 0
    endloop
  endfacet
  facet normal 0.707107 0.707107 0
    outer loop
      vertex -21.2782 -19.5 4
      vertex -21.2782 -19.5 0
      vertex -23.1115 -17.6667 4
    endloop
  endfacet
  facet normal 0.707107 0.707107 0
    outer loop
      vertex -23.1115 -17.6667 4
      vertex -21.2782 -19.5 0
      vertex -23.1115 -17.6667 0
    endloop
  endfacet
  facet normal -1.22461e-016 1 0
    outer loop
      vertex -23.1115 -17.6667 4
      vertex -23.1115 -17.6667 0
      vertex -30 -17.6667 4
    endloop
  endfacet
  facet normal -1.22461e-016 1 0
    outer loop
      vertex -30 -17.6667 4
      vertex -23.1115 -17.6667 0
      vertex -30 -17.6667 0
    endloop
  endfacet
  facet normal 0.353553 -0.612372 -0.707107
    outer loop
      vertex 16.975 -11.6762 0
      vertex 20.6875 -9.53275 0
      vertex 17.875 -12.1958 0.9
    endloop
  endfacet
  facet normal 0.707107 -1.00333e-007 -0.707107
    outer loop
      vertex 16.975 -12.037 0
      vertex 16.975 -11.6762 0
      vertex 17.875 -15.8042 0.9
    endloop
  endfacet
  facet normal 0.707107 -1.00333e-007 -0.707107
    outer loop
      vertex 17.875 -12.1958 0.899999
      vertex 16.975 -11.6762 0
      vertex 17.875 -12.1958 0.9
    endloop
  endfacet
  facet normal 0.707107 -1.00333e-007 -0.707107
    outer loop
      vertex 17.875 -15.8042 0.9
      vertex 16.975 -11.6762 0
      vertex 17.875 -12.1958 0.899999
    endloop
  endfacet
  facet normal 0.707107 -1.00333e-007 -0.707107
    outer loop
      vertex 17.875 -14 0.9
      vertex 17.875 -15.8042 0.9
      vertex 17.875 -12.1958 0.899999
    endloop
  endfacet
  facet normal 0.353554 -0.612372 -0.707107
    outer loop
      vertex 17.875 -12.1958 0.9
      vertex 20.6875 -9.53275 0
      vertex 18.8393 -11.639 0.9
    endloop
  endfacet
  facet normal 0.353554 -0.612372 -0.707107
    outer loop
      vertex 18.8393 -11.639 0.9
      vertex 20.6875 -9.53275 0
      vertex 21 -9.35233 0
    endloop
  endfacet
  facet normal 0.353554 -0.612372 -0.707107
    outer loop
      vertex 18.8393 -11.639 0.9
      vertex 21 -9.35233 0
      vertex 21 -10.3916 0.9
    endloop
  endfacet
  facet normal -0.353553 -0.612372 -0.707107
    outer loop
      vertex 21 -10.3916 0.9
      vertex 21 -9.35233 0
      vertex 25.025 -11.6762 0
    endloop
  endfacet
  facet normal -0.353553 -0.612372 -0.707107
    outer loop
      vertex 23.1607 -11.639 0.9
      vertex 25.025 -11.6762 0
      vertex 24.125 -12.1958 0.9
    endloop
  endfacet
  facet normal -0.353553 -0.612372 -0.707107
    outer loop
      vertex 21 -10.3916 0.9
      vertex 25.025 -11.6762 0
      vertex 23.1607 -11.639 0.9
    endloop
  endfacet
  facet normal -0.707107 -1.79467e-008 -0.707107
    outer loop
      vertex 25.025 -15.963 0
      vertex 24.125 -12.1958 0.9
      vertex 25.025 -11.6762 0
    endloop
  endfacet
  facet normal -0.707107 1.00333e-007 -0.707107
    outer loop
      vertex 24.125 -15.8042 0.9
      vertex 24.125 -15.8042 0.899999
      vertex 25.025 -16.3238 0
    endloop
  endfacet
  facet normal -0.707107 1.00333e-007 -0.707107
    outer loop
      vertex 25.025 -16.3238 0
      vertex 24.125 -15.8042 0.899999
      vertex 24.125 -14 0.9
    endloop
  endfacet
  facet normal -0.707107 1.00333e-007 -0.707107
    outer loop
      vertex 25.025 -16.3238 0
      vertex 24.125 -14 0.9
      vertex 24.125 -12.1958 0.9
    endloop
  endfacet
  facet normal -0.707107 1.00333e-007 -0.707107
    outer loop
      vertex 25.025 -16.3238 0
      vertex 24.125 -12.1958 0.9
      vertex 25.025 -15.963 0
    endloop
  endfacet
  facet normal -0.353553 0.612372 -0.707107
    outer loop
      vertex 21.3125 -18.4672 0
      vertex 24.125 -15.8042 0.9
      vertex 25.025 -16.3238 0
    endloop
  endfacet
  facet normal -0.353554 0.612372 -0.707107
    outer loop
      vertex 21 -18.6477 0
      vertex 21 -17.6084 0.9
      vertex 21.3125 -18.4672 0
    endloop
  endfacet
  facet normal -0.353554 0.612372 -0.707107
    outer loop
      vertex 21.3125 -18.4672 0
      vertex 21 -17.6084 0.9
      vertex 23.1607 -16.361 0.9
    endloop
  endfacet
  facet normal -0.353554 0.612372 -0.707107
    outer loop
      vertex 21.3125 -18.4672 0
      vertex 23.1607 -16.361 0.9
      vertex 24.125 -15.8042 0.9
    endloop
  endfacet
  facet normal 0.353553 0.612372 -0.707107
    outer loop
      vertex 16.975 -16.3238 0
      vertex 17.875 -15.8042 0.9
      vertex 21 -18.6477 0
    endloop
  endfacet
  facet normal 0.353553 0.612372 -0.707107
    outer loop
      vertex 21 -18.6477 0
      vertex 17.875 -15.8042 0.9
      vertex 18.8393 -16.361 0.9
    endloop
  endfacet
  facet normal 0.353553 0.612372 -0.707107
    outer loop
      vertex 21 -18.6477 0
      vertex 18.8393 -16.361 0.9
      vertex 21 -17.6084 0.9
    endloop
  endfacet
  facet normal 0.707107 1.79467e-008 -0.707107
    outer loop
      vertex 16.975 -16.3238 0
      vertex 16.975 -12.037 0
      vertex 17.875 -15.8042 0.9
    endloop
  endfacet
  facet normal 0 0 1
    outer loop
      vertex -30 -17.6667 4
      vertex -30 -18.5563 4
      vertex -23.5563 -25 4
    endloop
  endfacet
  facet normal 0 0 1
    outer loop
      vertex -21.2782 -19.5 4
      vertex -30 -17.6667 4
      vertex -14.4437 -25 4
    endloop
  endfacet
  facet normal 0 0 1
    outer loop
      vertex -14.4437 -25 4
      vertex -30 -17.6667 4
      vertex -23.5563 -25 4
    endloop
  endfacet
  facet normal 0 0 1
    outer loop
      vertex -21.2782 -19.5 4
      vertex -23.1115 -17.6667 4
      vertex -30 -17.6667 4
    endloop
  endfacet
  facet normal 0 0 1
    outer loop
      vertex -16.7218 -8.5 4
      vertex -13.5 -11.7218 4
      vertex -8 -9.44365 4
    endloop
  endfacet
  facet normal 0 0 1
    outer loop
      vertex -30 -9.44365 4
      vertex -30 -10.3333 4
      vertex -23.5563 -3 4
    endloop
  endfacet
  facet normal 0 0 1
    outer loop
      vertex -13.5 -16.2782 4
      vertex -16.7218 -19.5 4
      vertex -8 -18.5563 4
    endloop
  endfacet
  facet normal 0 0 1
    outer loop
      vertex -23.5563 -3 4
      vertex -21.2782 -8.5 4
      vertex -14.4437 -3 4
    endloop
  endfacet
  facet normal 0 0 1
    outer loop
      vertex -23.5563 -3 4
      vertex -23.1115 -10.3333 4
      vertex -21.2782 -8.5 4
    endloop
  endfacet
  facet normal 0 0 1
    outer loop
      vertex -14.4437 -3 4
      vertex -16.7218 -8.5 4
      vertex -8 -9.44365 4
    endloop
  endfacet
  facet normal 0 0 1
    outer loop
      vertex -8 -9.44365 4
      vertex -13.5 -11.7218 4
      vertex -8 -18.5563 4
    endloop
  endfacet
  facet normal 0 0 1
    outer loop
      vertex -13.5 -11.7218 4
      vertex -13.5 -16.2782 4
      vertex -8 -18.5563 4
    endloop
  endfacet
  facet normal 0 0 1
    outer loop
      vertex -8 -18.5563 4
      vertex -16.7218 -19.5 4
      vertex -14.4437 -25 4
    endloop
  endfacet
  facet normal 0 0 1
    outer loop
      vertex -16.7218 -19.5 4
      vertex -21.2782 -19.5 4
      vertex -14.4437 -25 4
    endloop
  endfacet
  facet normal 0 0 1
    outer loop
      vertex -30 -10.3333 4
      vertex -23.1115 -10.3333 4
      vertex -23.5563 -3 4
    endloop
  endfacet
  facet normal 0 0 1
    outer loop
      vertex -21.2782 -8.5 4
      vertex -16.7218 -8.5 4
      vertex -14.4437 -3 4
    endloop
  endfacet
  facet normal -0.14834 -1.81659e-017 0.988936
    outer loop
      vertex -8 -9.44365 3
      vertex -8 -16.4833 3
      vertex -8 -18.5563 3
    endloop
  endfacet
  facet normal -0.14834 -1.81659e-017 0.988936
    outer loop
      vertex 12 -5 6
      vertex -8 -9.44365 3
      vertex 12 -23 6
    endloop
  endfacet
  facet normal -0.14834 -1.81659e-017 0.988936
    outer loop
      vertex 12 -23 6
      vertex -8 -9.44365 3
      vertex -8 -18.5563 3
    endloop
  endfacet
  facet normal 0.5 -0.866025 1.06054e-016
    outer loop
      vertex 18.8393 -11.639 7.1
      vertex 17.875 -12.1958 7.1
      vertex 17.875 -12.1958 0.899999
    endloop
  endfacet
  facet normal 0.5 -0.866025 1.06054e-016
    outer loop
      vertex 17.875 -12.1958 0.9
      vertex 18.8393 -11.639 7.1
      vertex 17.875 -12.1958 0.899999
    endloop
  endfacet
  facet normal 0.5 -0.866025 1.06054e-016
    outer loop
      vertex 18.8393 -11.639 0.9
      vertex 18.8393 -11.639 7.1
      vertex 17.875 -12.1958 0.9
    endloop
  endfacet
  facet normal 0.5 0.866025 0
    outer loop
      vertex 17.875 -15.8042 0.9
      vertex 17.875 -15.8042 7.1
      vertex 18.8393 -16.361 0.9
    endloop
  endfacet
  facet normal 0.5 0.866025 0
    outer loop
      vertex 18.8393 -16.361 0.9
      vertex 17.875 -15.8042 7.1
      vertex 18.8393 -16.361 7.1
    endloop
  endfacet
  facet normal 1 -1.41892e-007 0
    outer loop
      vertex 17.875 -15.8042 7.1
      vertex 17.875 -15.8042 0.9
      vertex 17.875 -14 0.9
    endloop
  endfacet
  facet normal 1 -1.41892e-007 0
    outer loop
      vertex 17.875 -14 7.1
      vertex 17.875 -15.8042 7.1
      vertex 17.875 -14 0.9
    endloop
  endfacet
  facet normal 1 1.41892e-007 -1.73762e-023
    outer loop
      vertex 17.875 -12.1958 0.899999
      vertex 17.875 -12.1958 7.1
      vertex 17.875 -14 7.1
    endloop
  endfacet
  facet normal 1 1.41892e-007 -1.73762e-023
    outer loop
      vertex 17.875 -14 0.9
      vertex 17.875 -12.1958 0.899999
      vertex 17.875 -14 7.1
    endloop
  endfacet
  facet normal 0.5 -0.866025 0
    outer loop
      vertex 18.8393 -11.639 7.1
      vertex 18.8393 -11.639 0.9
      vertex 21 -10.3916 0.9
    endloop
  endfacet
  facet normal 0.5 -0.866025 0
    outer loop
      vertex 21 -10.3916 7.1
      vertex 18.8393 -11.639 7.1
      vertex 21 -10.3916 0.9
    endloop
  endfacet
  facet normal -0.5 -0.866025 1.06054e-016
    outer loop
      vertex 23.1607 -11.639 7.1
      vertex 21 -10.3916 7.1
      vertex 21 -10.3916 0.9
    endloop
  endfacet
  facet normal -0.5 -0.866025 1.06054e-016
    outer loop
      vertex 23.1607 -11.639 0.9
      vertex 23.1607 -11.639 7.1
      vertex 21 -10.3916 0.9
    endloop
  endfacet
  facet normal -0.5 -0.866025 0
    outer loop
      vertex 23.1607 -11.639 7.1
      vertex 23.1607 -11.639 0.9
      vertex 24.125 -12.1958 0.9
    endloop
  endfacet
  facet normal -0.5 -0.866025 0
    outer loop
      vertex 24.125 -12.1958 7.1
      vertex 23.1607 -11.639 7.1
      vertex 24.125 -12.1958 0.9
    endloop
  endfacet
  facet normal -1 1.41892e-007 0
    outer loop
      vertex 24.125 -14 0.9
      vertex 24.125 -14 7.1
      vertex 24.125 -12.1958 0.9
    endloop
  endfacet
  facet normal -1 1.41892e-007 0
    outer loop
      vertex 24.125 -12.1958 0.9
      vertex 24.125 -14 7.1
      vertex 24.125 -12.1958 7.1
    endloop
  endfacet
  facet normal -1 -1.41892e-007 1.73762e-023
    outer loop
      vertex 24.125 -14 0.9
      vertex 24.125 -15.8042 0.899999
      vertex 24.125 -14 7.1
    endloop
  endfacet
  facet normal -1 -1.41892e-007 1.73762e-023
    outer loop
      vertex 24.125 -14 7.1
      vertex 24.125 -15.8042 0.899999
      vertex 24.125 -15.8042 7.1
    endloop
  endfacet
  facet normal -0.5 0.866025 -1.06054e-016
    outer loop
      vertex 23.1607 -16.361 0.9
      vertex 23.1607 -16.361 7.1
      vertex 24.125 -15.8042 0.9
    endloop
  endfacet
  facet normal -0.5 0.866025 -1.06054e-016
    outer loop
      vertex 24.125 -15.8042 0.9
      vertex 23.1607 -16.361 7.1
      vertex 24.125 -15.8042 7.1
    endloop
  endfacet
  facet normal -0.5 0.866025 -1.06054e-016
    outer loop
      vertex 24.125 -15.8042 0.9
      vertex 24.125 -15.8042 7.1
      vertex 24.125 -15.8042 0.899999
    endloop
  endfacet
  facet normal -0.5 0.866025 0
    outer loop
      vertex 21 -17.6084 0.9
      vertex 21 -17.6084 7.1
      vertex 23.1607 -16.361 0.9
    endloop
  endfacet
  facet normal -0.5 0.866025 0
    outer loop
      vertex 23.1607 -16.361 0.9
      vertex 21 -17.6084 7.1
      vertex 23.1607 -16.361 7.1
    endloop
  endfacet
  facet normal 0.5 0.866025 -1.06054e-016
    outer loop
      vertex 18.8393 -16.361 0.9
      vertex 18.8393 -16.361 7.1
      vertex 21 -17.6084 0.9
    endloop
  endfacet
  facet normal 0.5 0.866025 -1.06054e-016
    outer loop
      vertex 21 -17.6084 0.9
      vertex 18.8393 -16.361 7.1
      vertex 21 -17.6084 7.1
    endloop
  endfacet
  facet normal -0.496139 -2.18083e-017 0.868243
    outer loop
      vertex 12 -23 6
      vertex 15.5 -19.5 8
      vertex 15.5 -8.5 8
    endloop
  endfacet
  facet normal -0.496139 -2.18083e-017 0.868243
    outer loop
      vertex 12 -5 6
      vertex 12 -23 6
      vertex 15.5 -8.5 8
    endloop
  endfacet
  facet normal 2.18083e-017 -0.496139 0.868243
    outer loop
      vertex 30 -23 6
      vertex 26.5 -19.5 8
      vertex 15.5 -19.5 8
    endloop
  endfacet
  facet normal 2.18083e-017 -0.496139 0.868243
    outer loop
      vertex 12 -23 6
      vertex 30 -23 6
      vertex 15.5 -19.5 8
    endloop
  endfacet
  facet normal 0.496139 2.18083e-017 0.868243
    outer loop
      vertex 26.5 -19.5 8
      vertex 30 -23 6
      vertex 30 -5 6
    endloop
  endfacet
  facet normal 0.496139 2.18083e-017 0.868243
    outer loop
      vertex 26.5 -8.5 8
      vertex 26.5 -19.5 8
      vertex 30 -5 6
    endloop
  endfacet
  facet normal -2.18083e-017 0.496139 0.868243
    outer loop
      vertex 15.5 -8.5 8
      vertex 26.5 -8.5 8
      vertex 30 -5 6
    endloop
  endfacet
  facet normal -2.18083e-017 0.496139 0.868243
    outer loop
      vertex 12 -5 6
      vertex 15.5 -8.5 8
      vertex 30 -5 6
    endloop
  endfacet
  facet normal 0.353553 -0.612372 0.707107
    outer loop
      vertex 21 -9.35233 8
      vertex 16.975 -11.6762 8
      vertex 17.875 -12.1958 7.1
    endloop
  endfacet
  facet normal 0.353553 -0.612372 0.707107
    outer loop
      vertex 21 -10.3916 7.1
      vertex 21 -9.35233 8
      vertex 18.8393 -11.639 7.1
    endloop
  endfacet
  facet normal 0.353553 -0.612372 0.707107
    outer loop
      vertex 18.8393 -11.639 7.1
      vertex 21 -9.35233 8
      vertex 17.875 -12.1958 7.1
    endloop
  endfacet
  facet normal 0.707107 1.00333e-007 0.707107
    outer loop
      vertex 17.875 -12.1958 7.1
      vertex 16.975 -15.963 8
      vertex 16.975 -16.3238 8
    endloop
  endfacet
  facet normal 0.707107 1.00333e-007 0.707107
    outer loop
      vertex 17.875 -15.8042 7.1
      vertex 17.875 -12.1958 7.1
      vertex 16.975 -16.3238 8
    endloop
  endfacet
  facet normal 0.707107 1.00333e-007 0.707107
    outer loop
      vertex 17.875 -15.8042 7.1
      vertex 17.875 -14 7.1
      vertex 17.875 -12.1958 7.1
    endloop
  endfacet
  facet normal 0.707107 -1.79467e-008 0.707107
    outer loop
      vertex 16.975 -11.6762 8
      vertex 16.975 -15.963 8
      vertex 17.875 -12.1958 7.1
    endloop
  endfacet
  facet normal 0.353554 0.612372 0.707107
    outer loop
      vertex 18.8393 -16.361 7.1
      vertex 17.875 -15.8042 7.1
      vertex 20.6875 -18.4672 8
    endloop
  endfacet
  facet normal 0.353554 0.612372 0.707107
    outer loop
      vertex 21 -17.6084 7.1
      vertex 18.8393 -16.361 7.1
      vertex 21 -18.6477 8
    endloop
  endfacet
  facet normal 0.353554 0.612372 0.707107
    outer loop
      vertex 21 -18.6477 8
      vertex 18.8393 -16.361 7.1
      vertex 20.6875 -18.4672 8
    endloop
  endfacet
  facet normal 0.353553 0.612372 0.707107
    outer loop
      vertex 17.875 -15.8042 7.1
      vertex 16.975 -16.3238 8
      vertex 20.6875 -18.4672 8
    endloop
  endfacet
  facet normal -0.353554 -0.612372 0.707107
    outer loop
      vertex 21.3125 -9.53275 8
      vertex 21 -9.35233 8
      vertex 21 -10.3916 7.1
    endloop
  endfacet
  facet normal -0.353554 -0.612372 0.707107
    outer loop
      vertex 24.125 -12.1958 7.1
      vertex 21.3125 -9.53275 8
      vertex 23.1607 -11.639 7.1
    endloop
  endfacet
  facet normal -0.353554 -0.612372 0.707107
    outer loop
      vertex 23.1607 -11.639 7.1
      vertex 21.3125 -9.53275 8
      vertex 21 -10.3916 7.1
    endloop
  endfacet
  facet normal -0.353553 -0.612372 0.707107
    outer loop
      vertex 25.025 -11.6762 8
      vertex 21.3125 -9.53275 8
      vertex 24.125 -12.1958 7.1
    endloop
  endfacet
  facet normal -0.707107 -1.00333e-007 0.707107
    outer loop
      vertex 24.125 -14 7.1
      vertex 25.025 -11.6762 8
      vertex 24.125 -12.1958 7.1
    endloop
  endfacet
  facet normal -0.707107 -1.00333e-007 0.707107
    outer loop
      vertex 24.125 -14 7.1
      vertex 24.125 -15.8042 7.1
      vertex 25.025 -11.6762 8
    endloop
  endfacet
  facet normal -0.707107 -1.00333e-007 0.707107
    outer loop
      vertex 24.125 -15.8042 7.1
      vertex 25.025 -12.037 8
      vertex 25.025 -11.6762 8
    endloop
  endfacet
  facet normal -0.707107 1.79467e-008 0.707107
    outer loop
      vertex 25.025 -12.037 8
      vertex 24.125 -15.8042 7.1
      vertex 25.025 -16.3238 8
    endloop
  endfacet
  facet normal -0.353553 0.612372 0.707107
    outer loop
      vertex 24.125 -15.8042 7.1
      vertex 23.1607 -16.361 7.1
      vertex 25.025 -16.3238 8
    endloop
  endfacet
  facet normal -0.353553 0.612372 0.707107
    outer loop
      vertex 25.025 -16.3238 8
      vertex 21 -17.6084 7.1
      vertex 21 -18.6477 8
    endloop
  endfacet
  facet normal -0.353553 0.612372 0.707107
    outer loop
      vertex 23.1607 -16.361 7.1
      vertex 21 -17.6084 7.1
      vertex 25.025 -16.3238 8
    endloop
  endfacet
  facet normal 0 0 1
    outer loop
      vertex 25.025 -11.6762 8
      vertex 26.5 -19.5 8
      vertex 26.5 -8.5 8
    endloop
  endfacet
  facet normal 0 0 1
    outer loop
      vertex 20.6875 -18.4672 8
      vertex 16.975 -16.3238 8
      vertex 15.5 -19.5 8
    endloop
  endfacet
  facet normal 0 0 1
    outer loop
      vertex 15.5 -8.5 8
      vertex 15.5 -19.5 8
      vertex 16.975 -15.963 8
    endloop
  endfacet
  facet normal 0 0 1
    outer loop
      vertex 15.5 -8.5 8
      vertex 16.975 -15.963 8
      vertex 16.975 -11.6762 8
    endloop
  endfacet
  facet normal 0 0 1
    outer loop
      vertex 15.5 -8.5 8
      vertex 21 -9.35233 8
      vertex 26.5 -8.5 8
    endloop
  endfacet
  facet normal 0 0 1
    outer loop
      vertex 15.5 -8.5 8
      vertex 16.975 -11.6762 8
      vertex 21 -9.35233 8
    endloop
  endfacet
  facet normal 0 0 1
    outer loop
      vertex 21 -9.35233 8
      vertex 21.3125 -9.53275 8
      vertex 26.5 -8.5 8
    endloop
  endfacet
  facet normal 0 0 1
    outer loop
      vertex 25.025 -12.037 8
      vertex 26.5 -19.5 8
      vertex 25.025 -11.6762 8
    endloop
  endfacet
  facet normal 0 0 1
    outer loop
      vertex 25.025 -16.3238 8
      vertex 26.5 -19.5 8
      vertex 25.025 -12.037 8
    endloop
  endfacet
  facet normal 0 0 1
    outer loop
      vertex 21 -18.6477 8
      vertex 26.5 -19.5 8
      vertex 25.025 -16.3238 8
    endloop
  endfacet
  facet normal 0 0 1
    outer loop
      vertex 15.5 -19.5 8
      vertex 26.5 -19.5 8
      vertex 21 -18.6477 8
    endloop
  endfacet
  facet normal 0 0 1
    outer loop
      vertex 15.5 -19.5 8
      vertex 21 -18.6477 8
      vertex 20.6875 -18.4672 8
    endloop
  endfacet
  facet normal 0 0 1
    outer loop
      vertex 16.975 -15.963 8
      vertex 15.5 -19.5 8
      vertex 16.975 -16.3238 8
    endloop
  endfacet
  facet normal 0 0 1
    outer loop
      vertex 21.3125 -9.53275 8
      vertex 25.025 -11.6762 8
      vertex 26.5 -8.5 8
    endloop
  endfacet
endsolid OpenSCAD_Model
