solid OpenSCAD_Model
  facet normal -1 0 0
    outer loop
      vertex -22.5 -11 7.42462
      vertex -22.5 -11 15
      vertex -22.5 -0.5 0
    endloop
  endfacet
  facet normal -1 0 0
    outer loop
      vertex -22.5 -0.5 0
      vertex -22.5 -11 15
      vertex -22.5 11 15
    endloop
  endfacet
  facet normal -1 0 0
    outer loop
      vertex -22.5 -0.5 0
      vertex -22.5 11 15
      vertex -22.5 11 7.42462
    endloop
  endfacet
  facet normal -1 0 0
    outer loop
      vertex -22.5 -0.5 0
      vertex -22.5 11 7.42462
      vertex -22.5 0.5 0
    endloop
  endfacet
  facet normal 0 -1 0
    outer loop
      vertex -22.5 -11 15
      vertex -22.5 -11 7.42462
      vertex -12 -11 0
    endloop
  endfacet
  facet normal 0 -1 0
    outer loop
      vertex 22.5 -11 7.42462
      vertex -22.5 -11 15
      vertex 12 -11 0
    endloop
  endfacet
  facet normal 0 -1 0
    outer loop
      vertex 12 -11 0
      vertex -22.5 -11 15
      vertex -12 -11 0
    endloop
  endfacet
  facet normal 0 -1 0
    outer loop
      vertex 22.5 -11 15
      vertex -22.5 -11 15
      vertex 22.5 -11 7.42462
    endloop
  endfacet
  facet normal -0.5 -0.5 -0.707107
    outer loop
      vertex -22.5 -0.5 0
      vertex -12 -11 0
      vertex -22.5 -11 7.42462
    endloop
  endfacet
  facet normal 0 0 -1
    outer loop
      vertex -22.5 -0.5 0
      vertex -22.5 0.5 0
      vertex -12 -11 0
    endloop
  endfacet
  facet normal 0 0 -1
    outer loop
      vertex -16.8821 2.32383 0
      vertex -22.5 0.5 0
      vertex -12 11 0
    endloop
  endfacet
  facet normal 0 0 -1
    outer loop
      vertex -8.83214 2.32383 0
      vertex -12 11 0
      vertex 12 11 0
    endloop
  endfacet
  facet normal 0 0 -1
    outer loop
      vertex 16.8821 2.32383 0
      vertex 12 11 0
      vertex 22.5 0.5 0
    endloop
  endfacet
  facet normal 0 0 -1
    outer loop
      vertex 12.8571 -4.64767 0
      vertex 22.5 -0.5 0
      vertex 12 -11 0
    endloop
  endfacet
  facet normal 0 0 -1
    outer loop
      vertex -16.8821 1.96299 0
      vertex -22.5 0.5 0
      vertex -16.8821 2.32383 0
    endloop
  endfacet
  facet normal 0 0 -1
    outer loop
      vertex -12.8571 4.64767 0
      vertex -16.8821 2.32383 0
      vertex -12 11 0
    endloop
  endfacet
  facet normal 0 0 -1
    outer loop
      vertex -16.8821 -2.32383 0
      vertex -22.5 0.5 0
      vertex -16.8821 1.96299 0
    endloop
  endfacet
  facet normal 0 0 -1
    outer loop
      vertex -4.025 2.32383 0
      vertex -8.83214 2.32383 0
      vertex 1.44203e-007 4.64767 0
    endloop
  endfacet
  facet normal 0 0 -1
    outer loop
      vertex -12 -11 0
      vertex -22.5 0.5 0
      vertex -16.8821 -2.32383 0
    endloop
  endfacet
  facet normal 0 0 -1
    outer loop
      vertex -8.83214 -2.32383 0
      vertex -12 -11 0
      vertex -12.5446 -4.46725 0
    endloop
  endfacet
  facet normal 0 0 -1
    outer loop
      vertex -4.025 -1.96299 0
      vertex -8.83214 -1.96299 0
      vertex -4.025 2.32383 0
    endloop
  endfacet
  facet normal 0 0 -1
    outer loop
      vertex -12 -11 0
      vertex -12.8571 -4.64767 0
      vertex -12.5446 -4.46725 0
    endloop
  endfacet
  facet normal 0 0 -1
    outer loop
      vertex -12.8571 4.64767 0
      vertex -12 11 0
      vertex -8.83214 2.32383 0
    endloop
  endfacet
  facet normal 0 0 -1
    outer loop
      vertex -0.3125 -4.46725 0
      vertex -12 -11 0
      vertex -4.025 -2.32383 0
    endloop
  endfacet
  facet normal 0 0 -1
    outer loop
      vertex 1.44203e-007 4.64767 0
      vertex -8.83214 2.32383 0
      vertex 12 11 0
    endloop
  endfacet
  facet normal 0 0 -1
    outer loop
      vertex -13.1696 4.46725 0
      vertex -16.8821 2.32383 0
      vertex -12.8571 4.64767 0
    endloop
  endfacet
  facet normal 0 0 -1
    outer loop
      vertex -4.025 -1.96299 0
      vertex -8.83214 -2.32383 0
      vertex -8.83214 -1.96299 0
    endloop
  endfacet
  facet normal 0 0 -1
    outer loop
      vertex -12 -11 0
      vertex -8.83214 -2.32383 0
      vertex -4.025 -1.96299 0
    endloop
  endfacet
  facet normal 0 0 -1
    outer loop
      vertex -12 -11 0
      vertex -4.025 -1.96299 0
      vertex -4.025 -2.32383 0
    endloop
  endfacet
  facet normal 0 0 -1
    outer loop
      vertex 0.3125 4.46725 0
      vertex 12 11 0
      vertex 4.025 2.32383 0
    endloop
  endfacet
  facet normal 0 0 -1
    outer loop
      vertex 13.1696 4.46725 0
      vertex 12 11 0
      vertex 16.8821 2.32383 0
    endloop
  endfacet
  facet normal 0 0 -1
    outer loop
      vertex -12 -11 0
      vertex -0.3125 -4.46725 0
      vertex -1.44203e-007 -4.64767 0
    endloop
  endfacet
  facet normal 0 0 -1
    outer loop
      vertex 12.5446 -4.46725 0
      vertex -12 -11 0
      vertex -1.44203e-007 -4.64767 0
    endloop
  endfacet
  facet normal 0 0 -1
    outer loop
      vertex 4.025 2.32383 0
      vertex 12 11 0
      vertex 4.025 1.96299 0
    endloop
  endfacet
  facet normal 0 0 -1
    outer loop
      vertex 4.025 -2.32383 0
      vertex 8.83214 -1.96299 0
      vertex 8.83214 -2.32383 0
    endloop
  endfacet
  facet normal 0 0 -1
    outer loop
      vertex 4.025 -2.32383 0
      vertex 8.83214 -2.32383 0
      vertex -1.44203e-007 -4.64767 0
    endloop
  endfacet
  facet normal 0 0 -1
    outer loop
      vertex 8.83214 -1.96299 0
      vertex 4.025 -2.32383 0
      vertex 8.83214 2.32383 0
    endloop
  endfacet
  facet normal 0 0 -1
    outer loop
      vertex 0.3125 4.46725 0
      vertex 1.44203e-007 4.64767 0
      vertex 12 11 0
    endloop
  endfacet
  facet normal 0 0 -1
    outer loop
      vertex -8.83214 -1.96299 0
      vertex -8.83214 2.32383 0
      vertex -4.025 2.32383 0
    endloop
  endfacet
  facet normal 0 0 -1
    outer loop
      vertex 4.025 1.96299 0
      vertex 12 11 0
      vertex 4.025 -2.32383 0
    endloop
  endfacet
  facet normal 0 0 -1
    outer loop
      vertex 16.8821 1.96299 0
      vertex 22.5 0.5 0
      vertex 22.5 -0.5 0
    endloop
  endfacet
  facet normal 0 0 -1
    outer loop
      vertex -12 -11 0
      vertex 12.5446 -4.46725 0
      vertex 12 -11 0
    endloop
  endfacet
  facet normal 0 0 -1
    outer loop
      vertex 16.8821 1.96299 0
      vertex 22.5 -0.5 0
      vertex 16.8821 -2.32383 0
    endloop
  endfacet
  facet normal 0 0 -1
    outer loop
      vertex 12.5446 -4.46725 0
      vertex 12.8571 -4.64767 0
      vertex 12 -11 0
    endloop
  endfacet
  facet normal 0 0 -1
    outer loop
      vertex 16.8821 -2.32383 0
      vertex 22.5 -0.5 0
      vertex 12.8571 -4.64767 0
    endloop
  endfacet
  facet normal 0 0 -1
    outer loop
      vertex 12.5446 -4.46725 0
      vertex -1.44203e-007 -4.64767 0
      vertex 8.83214 -2.32383 0
    endloop
  endfacet
  facet normal 0 0 -1
    outer loop
      vertex 16.8821 1.96299 0
      vertex 16.8821 2.32383 0
      vertex 22.5 0.5 0
    endloop
  endfacet
  facet normal 0 0 -1
    outer loop
      vertex 12.8571 4.64767 0
      vertex 12 11 0
      vertex 13.1696 4.46725 0
    endloop
  endfacet
  facet normal 0 0 -1
    outer loop
      vertex 8.83214 2.32383 0
      vertex 12 11 0
      vertex 12.8571 4.64767 0
    endloop
  endfacet
  facet normal 0 0 -1
    outer loop
      vertex 4.025 -2.32383 0
      vertex 12 11 0
      vertex 8.83214 2.32383 0
    endloop
  endfacet
  facet normal 0 0 -1
    outer loop
      vertex -12.8571 -4.64767 0
      vertex -12 -11 0
      vertex -16.8821 -2.32383 0
    endloop
  endfacet
  facet normal -0.5 0.5 -0.707107
    outer loop
      vertex -22.5 11 7.42462
      vertex -12 11 0
      vertex -22.5 0.5 0
    endloop
  endfacet
  facet normal 0 1 0
    outer loop
      vertex -22.5 11 7.42462
      vertex -22.5 11 15
      vertex -12 11 0
    endloop
  endfacet
  facet normal 0 1 0
    outer loop
      vertex -12 11 0
      vertex -22.5 11 15
      vertex 22.5 11 15
    endloop
  endfacet
  facet normal 0 1 0
    outer loop
      vertex -12 11 0
      vertex 22.5 11 15
      vertex 22.5 11 7.42462
    endloop
  endfacet
  facet normal 0 1 0
    outer loop
      vertex -12 11 0
      vertex 22.5 11 7.42462
      vertex 12 11 0
    endloop
  endfacet
  facet normal 0 0 1
    outer loop
      vertex -11 -11 15
      vertex -22.5 -11 15
      vertex 22.5 -11 15
    endloop
  endfacet
  facet normal 0 0 1
    outer loop
      vertex 11 -11 15
      vertex -11 -11 15
      vertex 22.5 -11 15
    endloop
  endfacet
  facet normal 0 0 1
    outer loop
      vertex -22.5 11 15
      vertex -22.5 -11 15
      vertex -11 -11 15
    endloop
  endfacet
  facet normal 0 0 1
    outer loop
      vertex 22.5 11 15
      vertex -22.5 11 15
      vertex -11 11 15
    endloop
  endfacet
  facet normal 0 0 1
    outer loop
      vertex 22.5 11 15
      vertex 11 11 15
      vertex 22.5 -11 15
    endloop
  endfacet
  facet normal 0 0 1
    outer loop
      vertex 22.5 11 15
      vertex -11 11 15
      vertex 11 11 15
    endloop
  endfacet
  facet normal 0 0 1
    outer loop
      vertex 11 11 15
      vertex 11 -11 15
      vertex 22.5 -11 15
    endloop
  endfacet
  facet normal 0 0 1
    outer loop
      vertex -11 -11 15
      vertex -11 11 15
      vertex -22.5 11 15
    endloop
  endfacet
  facet normal 1 0 0
    outer loop
      vertex 22.5 -11 15
      vertex 22.5 -11 7.42462
      vertex 22.5 -0.5 0
    endloop
  endfacet
  facet normal 1 0 0
    outer loop
      vertex 22.5 11 7.42462
      vertex 22.5 -11 15
      vertex 22.5 0.5 0
    endloop
  endfacet
  facet normal 1 0 0
    outer loop
      vertex 22.5 0.5 0
      vertex 22.5 -11 15
      vertex 22.5 -0.5 0
    endloop
  endfacet
  facet normal 1 0 0
    outer loop
      vertex 22.5 11 15
      vertex 22.5 -11 15
      vertex 22.5 11 7.42462
    endloop
  endfacet
  facet normal 0.5 -0.5 -0.707107
    outer loop
      vertex 22.5 -0.5 0
      vertex 22.5 -11 7.42462
      vertex 12 -11 0
    endloop
  endfacet
  facet normal 0.5 0.5 -0.707107
    outer loop
      vertex 22.5 11 7.42462
      vertex 22.5 0.5 0
      vertex 12 11 0
    endloop
  endfacet
  facet normal 0.353553 -0.612372 -0.707107
    outer loop
      vertex -15.9821 1.80422 0.9
      vertex -16.8821 2.32383 0
      vertex -13.1696 4.46725 0
    endloop
  endfacet
  facet normal 0.707107 -1.00333e-007 -0.707107
    outer loop
      vertex -16.8821 1.96299 0
      vertex -16.8821 2.32383 0
      vertex -15.9821 -1.80422 0.9
    endloop
  endfacet
  facet normal 0.707107 -1.00333e-007 -0.707107
    outer loop
      vertex -15.9821 -1.80422 0.9
      vertex -16.8821 2.32383 0
      vertex -15.9821 1.80422 0.9
    endloop
  endfacet
  facet normal 0.353554 -0.612372 -0.707107
    outer loop
      vertex -15.9821 1.80422 0.9
      vertex -13.1696 4.46725 0
      vertex -12.8571 3.60844 0.9
    endloop
  endfacet
  facet normal 0.353554 -0.612372 -0.707107
    outer loop
      vertex -12.8571 3.60844 0.9
      vertex -13.1696 4.46725 0
      vertex -12.8571 4.64767 0
    endloop
  endfacet
  facet normal -0.353553 -0.612372 -0.707107
    outer loop
      vertex -12.8571 3.60844 0.9
      vertex -12.8571 4.64767 0
      vertex -9.73214 1.80422 0.9
    endloop
  endfacet
  facet normal -0.353553 -0.612372 -0.707107
    outer loop
      vertex -9.73214 1.80422 0.9
      vertex -12.8571 4.64767 0
      vertex -8.83214 2.32383 0
    endloop
  endfacet
  facet normal -0.707107 -1.79467e-008 -0.707107
    outer loop
      vertex -8.83214 -1.96299 0
      vertex -9.73214 1.80422 0.9
      vertex -8.83214 2.32383 0
    endloop
  endfacet
  facet normal -0.707107 1.00333e-007 -0.707107
    outer loop
      vertex -9.73214 -1.80422 0.9
      vertex -9.73214 1.80422 0.9
      vertex -8.83214 -2.32383 0
    endloop
  endfacet
  facet normal -0.707107 1.00333e-007 -0.707107
    outer loop
      vertex -8.83214 -2.32383 0
      vertex -9.73214 1.80422 0.9
      vertex -8.83214 -1.96299 0
    endloop
  endfacet
  facet normal -0.353553 0.612372 -0.707107
    outer loop
      vertex -8.83214 -2.32383 0
      vertex -12.5446 -4.46725 0
      vertex -9.73214 -1.80422 0.9
    endloop
  endfacet
  facet normal -0.353554 0.612372 -0.707107
    outer loop
      vertex -12.8571 -4.64767 0
      vertex -12.8571 -3.60844 0.9
      vertex -12.5446 -4.46725 0
    endloop
  endfacet
  facet normal -0.353554 0.612372 -0.707107
    outer loop
      vertex -12.5446 -4.46725 0
      vertex -12.8571 -3.60844 0.9
      vertex -9.73214 -1.80422 0.9
    endloop
  endfacet
  facet normal 0.353553 0.612372 -0.707107
    outer loop
      vertex -16.8821 -2.32383 0
      vertex -15.9821 -1.80422 0.9
      vertex -12.8571 -4.64767 0
    endloop
  endfacet
  facet normal 0.353553 0.612372 -0.707107
    outer loop
      vertex -12.8571 -4.64767 0
      vertex -15.9821 -1.80422 0.9
      vertex -12.8571 -3.60844 0.9
    endloop
  endfacet
  facet normal 0.707107 1.79467e-008 -0.707107
    outer loop
      vertex -16.8821 -2.32383 0
      vertex -16.8821 1.96299 0
      vertex -15.9821 -1.80422 0.9
    endloop
  endfacet
  facet normal 0.707107 -1.79467e-008 -0.707107
    outer loop
      vertex -4.025 2.32383 0
      vertex -3.125 1.80422 0.9
      vertex -4.025 -1.96299 0
    endloop
  endfacet
  facet normal 0.707107 1.00333e-007 -0.707107
    outer loop
      vertex -3.125 -1.80422 0.9
      vertex -4.025 -2.32383 0
      vertex -3.125 1.80422 0.9
    endloop
  endfacet
  facet normal 0.707107 1.00333e-007 -0.707107
    outer loop
      vertex -3.125 1.80422 0.9
      vertex -4.025 -2.32383 0
      vertex -4.025 -1.96299 0
    endloop
  endfacet
  facet normal 0.353553 -0.612372 -0.707107
    outer loop
      vertex 3.54016e-007 3.60844 0.9
      vertex -3.125 1.80422 0.9
      vertex 1.44203e-007 4.64767 0
    endloop
  endfacet
  facet normal 0.353553 -0.612372 -0.707107
    outer loop
      vertex 1.44203e-007 4.64767 0
      vertex -3.125 1.80422 0.9
      vertex -4.025 2.32383 0
    endloop
  endfacet
  facet normal -0.353554 -0.612372 -0.707107
    outer loop
      vertex 3.125 1.80422 0.9
      vertex 3.54016e-007 3.60844 0.9
      vertex 0.3125 4.46725 0
    endloop
  endfacet
  facet normal -0.353554 -0.612372 -0.707107
    outer loop
      vertex 0.3125 4.46725 0
      vertex 3.54016e-007 3.60844 0.9
      vertex 1.44203e-007 4.64767 0
    endloop
  endfacet
  facet normal -0.353553 -0.612372 -0.707107
    outer loop
      vertex 4.025 2.32383 0
      vertex 3.125 1.80422 0.9
      vertex 0.3125 4.46725 0
    endloop
  endfacet
  facet normal -0.707107 -1.00333e-007 -0.707107
    outer loop
      vertex 4.025 1.96299 0
      vertex 3.125 -1.80422 0.9
      vertex 4.025 2.32383 0
    endloop
  endfacet
  facet normal -0.707107 -1.00333e-007 -0.707107
    outer loop
      vertex 4.025 2.32383 0
      vertex 3.125 -1.80422 0.9
      vertex 3.125 1.80422 0.9
    endloop
  endfacet
  facet normal -0.707107 1.79467e-008 -0.707107
    outer loop
      vertex 4.025 1.96299 0
      vertex 4.025 -2.32383 0
      vertex 3.125 -1.80422 0.9
    endloop
  endfacet
  facet normal -0.353553 0.612372 -0.707107
    outer loop
      vertex 4.025 -2.32383 0
      vertex -1.44203e-007 -4.64767 0
      vertex 3.125 -1.80422 0.9
    endloop
  endfacet
  facet normal -0.353553 0.612372 -0.707107
    outer loop
      vertex 3.125 -1.80422 0.9
      vertex -1.44203e-007 -4.64767 0
      vertex -3.54016e-007 -3.60844 0.9
    endloop
  endfacet
  facet normal 0.353554 0.612372 -0.707107
    outer loop
      vertex -1.44203e-007 -4.64767 0
      vertex -0.3125 -4.46725 0
      vertex -3.54016e-007 -3.60844 0.9
    endloop
  endfacet
  facet normal 0.353554 0.612372 -0.707107
    outer loop
      vertex -3.54016e-007 -3.60844 0.9
      vertex -0.3125 -4.46725 0
      vertex -3.125 -1.80422 0.9
    endloop
  endfacet
  facet normal 0.353553 0.612372 -0.707107
    outer loop
      vertex -3.125 -1.80422 0.9
      vertex -0.3125 -4.46725 0
      vertex -4.025 -2.32383 0
    endloop
  endfacet
  facet normal 0.707107 -1.79467e-008 -0.707107
    outer loop
      vertex 8.83214 2.32383 0
      vertex 9.73214 1.80422 0.9
      vertex 8.83214 -1.96299 0
    endloop
  endfacet
  facet normal 0.707107 1.00333e-007 -0.707107
    outer loop
      vertex 9.73214 -1.80422 0.9
      vertex 8.83214 -2.32383 0
      vertex 9.73214 1.80422 0.9
    endloop
  endfacet
  facet normal 0.707107 1.00333e-007 -0.707107
    outer loop
      vertex 9.73214 1.80422 0.9
      vertex 8.83214 -2.32383 0
      vertex 8.83214 -1.96299 0
    endloop
  endfacet
  facet normal 0.353553 -0.612372 -0.707107
    outer loop
      vertex 12.8571 3.60844 0.9
      vertex 9.73214 1.80422 0.9
      vertex 12.8571 4.64767 0
    endloop
  endfacet
  facet normal 0.353553 -0.612372 -0.707107
    outer loop
      vertex 12.8571 4.64767 0
      vertex 9.73214 1.80422 0.9
      vertex 8.83214 2.32383 0
    endloop
  endfacet
  facet normal -0.353554 -0.612372 -0.707107
    outer loop
      vertex 15.9821 1.80422 0.9
      vertex 12.8571 3.60844 0.9
      vertex 13.1696 4.46725 0
    endloop
  endfacet
  facet normal -0.353554 -0.612372 -0.707107
    outer loop
      vertex 13.1696 4.46725 0
      vertex 12.8571 3.60844 0.9
      vertex 12.8571 4.64767 0
    endloop
  endfacet
  facet normal -0.353553 -0.612372 -0.707107
    outer loop
      vertex 16.8821 2.32383 0
      vertex 15.9821 1.80422 0.9
      vertex 13.1696 4.46725 0
    endloop
  endfacet
  facet normal -0.707107 -1.00333e-007 -0.707107
    outer loop
      vertex 16.8821 1.96299 0
      vertex 15.9821 -1.80422 0.9
      vertex 16.8821 2.32383 0
    endloop
  endfacet
  facet normal -0.707107 -1.00333e-007 -0.707107
    outer loop
      vertex 16.8821 2.32383 0
      vertex 15.9821 -1.80422 0.9
      vertex 15.9821 1.80422 0.9
    endloop
  endfacet
  facet normal -0.707107 1.79467e-008 -0.707107
    outer loop
      vertex 16.8821 1.96299 0
      vertex 16.8821 -2.32383 0
      vertex 15.9821 -1.80422 0.9
    endloop
  endfacet
  facet normal -0.353553 0.612372 -0.707107
    outer loop
      vertex 16.8821 -2.32383 0
      vertex 12.8571 -4.64767 0
      vertex 15.9821 -1.80422 0.9
    endloop
  endfacet
  facet normal -0.353553 0.612372 -0.707107
    outer loop
      vertex 15.9821 -1.80422 0.9
      vertex 12.8571 -4.64767 0
      vertex 12.8571 -3.60844 0.9
    endloop
  endfacet
  facet normal 0.353554 0.612372 -0.707107
    outer loop
      vertex 12.8571 -4.64767 0
      vertex 12.5446 -4.46725 0
      vertex 12.8571 -3.60844 0.9
    endloop
  endfacet
  facet normal 0.353554 0.612372 -0.707107
    outer loop
      vertex 12.8571 -3.60844 0.9
      vertex 12.5446 -4.46725 0
      vertex 9.73214 -1.80422 0.9
    endloop
  endfacet
  facet normal 0.353553 0.612372 -0.707107
    outer loop
      vertex 9.73214 -1.80422 0.9
      vertex 12.5446 -4.46725 0
      vertex 8.83214 -2.32383 0
    endloop
  endfacet
  facet normal -0.447214 -3.51083e-017 0.894427
    outer loop
      vertex -9 9 16
      vertex -11 11 15
      vertex -11 -11 15
    endloop
  endfacet
  facet normal -0.447214 -3.51083e-017 0.894427
    outer loop
      vertex -9 -9 16
      vertex -9 9 16
      vertex -11 -11 15
    endloop
  endfacet
  facet normal 3.51083e-017 -0.447214 0.894427
    outer loop
      vertex -9 -9 16
      vertex -11 -11 15
      vertex 11 -11 15
    endloop
  endfacet
  facet normal 3.51083e-017 -0.447214 0.894427
    outer loop
      vertex 9 -9 16
      vertex -9 -9 16
      vertex 11 -11 15
    endloop
  endfacet
  facet normal 0.447214 3.51083e-017 0.894427
    outer loop
      vertex 11 11 15
      vertex 9 9 16
      vertex 9 -9 16
    endloop
  endfacet
  facet normal 0.447214 3.51083e-017 0.894427
    outer loop
      vertex 11 -11 15
      vertex 11 11 15
      vertex 9 -9 16
    endloop
  endfacet
  facet normal -3.51083e-017 0.447214 0.894427
    outer loop
      vertex 11 11 15
      vertex -11 11 15
      vertex -9 9 16
    endloop
  endfacet
  facet normal -3.51083e-017 0.447214 0.894427
    outer loop
      vertex 9 9 16
      vertex 11 11 15
      vertex -9 9 16
    endloop
  endfacet
  facet normal 0.5 -0.866025 0
    outer loop
      vertex -15.9821 1.80422 10.9
      vertex -15.9821 1.80422 0.9
      vertex -12.8571 3.60844 0.9
    endloop
  endfacet
  facet normal 0.5 -0.866025 0
    outer loop
      vertex -12.8571 3.60844 10.9
      vertex -15.9821 1.80422 10.9
      vertex -12.8571 3.60844 0.9
    endloop
  endfacet
  facet normal 1 -1.41892e-007 0
    outer loop
      vertex -15.9821 -1.80422 10.9
      vertex -15.9821 -1.80422 0.9
      vertex -15.9821 1.80422 0.9
    endloop
  endfacet
  facet normal 1 -1.41892e-007 0
    outer loop
      vertex -15.9821 1.80422 10.9
      vertex -15.9821 -1.80422 10.9
      vertex -15.9821 1.80422 0.9
    endloop
  endfacet
  facet normal 0.5 0.866025 0
    outer loop
      vertex -15.9821 -1.80422 0.9
      vertex -15.9821 -1.80422 10.9
      vertex -12.8571 -3.60844 0.9
    endloop
  endfacet
  facet normal 0.5 0.866025 0
    outer loop
      vertex -12.8571 -3.60844 0.9
      vertex -15.9821 -1.80422 10.9
      vertex -12.8571 -3.60844 10.9
    endloop
  endfacet
  facet normal -0.5 -0.866025 0
    outer loop
      vertex -12.8571 3.60844 10.9
      vertex -12.8571 3.60844 0.9
      vertex -9.73214 1.80422 0.9
    endloop
  endfacet
  facet normal -0.5 -0.866025 0
    outer loop
      vertex -9.73214 1.80422 10.9
      vertex -12.8571 3.60844 10.9
      vertex -9.73214 1.80422 0.9
    endloop
  endfacet
  facet normal -1 1.41892e-007 0
    outer loop
      vertex -9.73214 -1.80422 0.9
      vertex -9.73214 -1.80422 10.9
      vertex -9.73214 1.80422 0.9
    endloop
  endfacet
  facet normal -1 1.41892e-007 0
    outer loop
      vertex -9.73214 1.80422 0.9
      vertex -9.73214 -1.80422 10.9
      vertex -9.73214 1.80422 10.9
    endloop
  endfacet
  facet normal -0.5 0.866025 0
    outer loop
      vertex -12.8571 -3.60844 0.9
      vertex -12.8571 -3.60844 10.9
      vertex -9.73214 -1.80422 0.9
    endloop
  endfacet
  facet normal -0.5 0.866025 0
    outer loop
      vertex -9.73214 -1.80422 0.9
      vertex -12.8571 -3.60844 10.9
      vertex -9.73214 -1.80422 10.9
    endloop
  endfacet
  facet normal 0.5 -0.866025 0
    outer loop
      vertex 3.54016e-007 3.60844 0.9
      vertex 3.54016e-007 3.60844 10.9
      vertex -5.40876e-016 3.60844 10.9
    endloop
  endfacet
  facet normal 0.5 -0.866025 0
    outer loop
      vertex -2.1607 2.36096 5.1
      vertex 3.54016e-007 3.60844 0.9
      vertex -1.15599e-015 3.60844 5.1
    endloop
  endfacet
  facet normal 0.5 -0.866025 0
    outer loop
      vertex -1.15599e-015 3.60844 5.1
      vertex 3.54016e-007 3.60844 0.9
      vertex -5.40876e-016 3.60844 10.9
    endloop
  endfacet
  facet normal 0.5 -0.866025 0
    outer loop
      vertex -3.125 1.80422 0.9
      vertex 3.54016e-007 3.60844 0.9
      vertex -2.1607 2.36096 5.1
    endloop
  endfacet
  facet normal 0.5 -0.866025 0
    outer loop
      vertex -3.125 1.80422 10.9
      vertex -2.1607 2.36096 5.1
      vertex -2.1607 2.36096 10.9
    endloop
  endfacet
  facet normal 0.5 -0.866025 0
    outer loop
      vertex -3.125 1.80422 0.9
      vertex -2.1607 2.36096 5.1
      vertex -3.125 1.80422 10.9
    endloop
  endfacet
  facet normal 1 1.41892e-007 0
    outer loop
      vertex -3.125 1.80422 10.9
      vertex -3.125 -3.12275e-016 10.9
      vertex -3.125 -6.6741e-016 5.1
    endloop
  endfacet
  facet normal 1 1.41892e-007 0
    outer loop
      vertex -3.125 1.80422 0.9
      vertex -3.125 1.80422 10.9
      vertex -3.125 -6.6741e-016 5.1
    endloop
  endfacet
  facet normal 1 1.41892e-007 0
    outer loop
      vertex -3.125 -1.80422 5.1
      vertex -3.125 -1.80422 0.9
      vertex -3.125 -6.6741e-016 5.1
    endloop
  endfacet
  facet normal 1 1.41892e-007 0
    outer loop
      vertex -3.125 -1.80422 0.9
      vertex -3.125 1.80422 0.9
      vertex -3.125 -6.6741e-016 5.1
    endloop
  endfacet
  facet normal 0.5 0.866025 0
    outer loop
      vertex -2.1607 -2.36096 5.1
      vertex -2.1607 -2.36096 10.9
      vertex -3.54016e-007 -3.60844 10.9
    endloop
  endfacet
  facet normal 0.5 0.866025 0
    outer loop
      vertex -2.1607 -2.36096 5.1
      vertex -3.54016e-007 -3.60844 10.9
      vertex -3.54016e-007 -3.60844 0.9
    endloop
  endfacet
  facet normal 0.5 0.866025 0
    outer loop
      vertex -2.1607 -2.36096 5.1
      vertex -3.54016e-007 -3.60844 0.9
      vertex -3.125 -1.80422 5.1
    endloop
  endfacet
  facet normal 0.5 0.866025 0
    outer loop
      vertex -3.54016e-007 -3.60844 0.9
      vertex -3.125 -1.80422 0.9
      vertex -3.125 -1.80422 5.1
    endloop
  endfacet
  facet normal -0.5 -0.866025 0
    outer loop
      vertex 3.125 1.80422 0.9
      vertex 3.125 1.80422 5.1
      vertex 2.1607 2.36096 5.1
    endloop
  endfacet
  facet normal -0.5 -0.866025 0
    outer loop
      vertex 3.54016e-007 3.60844 10.9
      vertex 3.125 1.80422 0.9
      vertex 2.1607 2.36096 5.1
    endloop
  endfacet
  facet normal -0.5 -0.866025 0
    outer loop
      vertex 2.1607 2.36096 10.9
      vertex 3.54016e-007 3.60844 10.9
      vertex 2.1607 2.36096 5.1
    endloop
  endfacet
  facet normal -0.5 -0.866025 0
    outer loop
      vertex 3.54016e-007 3.60844 10.9
      vertex 3.54016e-007 3.60844 0.9
      vertex 3.125 1.80422 0.9
    endloop
  endfacet
  facet normal -1 -1.41892e-007 0
    outer loop
      vertex 3.125 -1.80422 10.9
      vertex 3.125 -3.12275e-016 10.9
      vertex 3.125 -1.80422 0.9
    endloop
  endfacet
  facet normal -1 -1.41892e-007 0
    outer loop
      vertex 3.125 -1.80422 0.9
      vertex 3.125 -3.12275e-016 10.9
      vertex 3.125 -6.6741e-016 5.1
    endloop
  endfacet
  facet normal -1 -1.41892e-007 0
    outer loop
      vertex 3.125 -1.80422 0.9
      vertex 3.125 -6.6741e-016 5.1
      vertex 3.125 1.80422 5.1
    endloop
  endfacet
  facet normal -1 -1.41892e-007 0
    outer loop
      vertex 3.125 -1.80422 0.9
      vertex 3.125 1.80422 5.1
      vertex 3.125 1.80422 0.9
    endloop
  endfacet
  facet normal -0.5 0.866025 0
    outer loop
      vertex -5.40876e-016 -3.60844 10.9
      vertex -1.15599e-015 -3.60844 5.1
      vertex -3.54016e-007 -3.60844 10.9
    endloop
  endfacet
  facet normal -0.5 0.866025 0
    outer loop
      vertex -3.54016e-007 -3.60844 0.9
      vertex -1.15599e-015 -3.60844 5.1
      vertex 3.125 -1.80422 0.9
    endloop
  endfacet
  facet normal -0.5 0.866025 0
    outer loop
      vertex 3.125 -1.80422 10.9
      vertex 2.1607 -2.36096 5.1
      vertex 2.1607 -2.36096 10.9
    endloop
  endfacet
  facet normal -0.5 0.866025 0
    outer loop
      vertex 3.125 -1.80422 0.9
      vertex 2.1607 -2.36096 5.1
      vertex 3.125 -1.80422 10.9
    endloop
  endfacet
  facet normal -0.5 0.866025 0
    outer loop
      vertex -1.15599e-015 -3.60844 5.1
      vertex 2.1607 -2.36096 5.1
      vertex 3.125 -1.80422 0.9
    endloop
  endfacet
  facet normal -0.5 0.866025 0
    outer loop
      vertex -3.54016e-007 -3.60844 10.9
      vertex -1.15599e-015 -3.60844 5.1
      vertex -3.54016e-007 -3.60844 0.9
    endloop
  endfacet
  facet normal 0.5 -0.866025 0
    outer loop
      vertex 12.8571 3.60844 0.9
      vertex 12.8571 3.60844 10.9
      vertex 9.73214 1.80422 10.9
    endloop
  endfacet
  facet normal 0.5 -0.866025 0
    outer loop
      vertex 9.73214 1.80422 0.9
      vertex 12.8571 3.60844 0.9
      vertex 9.73214 1.80422 10.9
    endloop
  endfacet
  facet normal 1 1.41892e-007 0
    outer loop
      vertex 9.73214 1.80422 10.9
      vertex 9.73214 -1.80422 10.9
      vertex 9.73214 -1.80422 0.9
    endloop
  endfacet
  facet normal 1 1.41892e-007 0
    outer loop
      vertex 9.73214 1.80422 0.9
      vertex 9.73214 1.80422 10.9
      vertex 9.73214 -1.80422 0.9
    endloop
  endfacet
  facet normal 0.5 0.866025 0
    outer loop
      vertex 12.8571 -3.60844 10.9
      vertex 12.8571 -3.60844 0.9
      vertex 9.73214 -1.80422 10.9
    endloop
  endfacet
  facet normal 0.5 0.866025 0
    outer loop
      vertex 9.73214 -1.80422 10.9
      vertex 12.8571 -3.60844 0.9
      vertex 9.73214 -1.80422 0.9
    endloop
  endfacet
  facet normal -0.5 -0.866025 0
    outer loop
      vertex 15.9821 1.80422 0.9
      vertex 15.9821 1.80422 10.9
      vertex 12.8571 3.60844 10.9
    endloop
  endfacet
  facet normal -0.5 -0.866025 0
    outer loop
      vertex 12.8571 3.60844 0.9
      vertex 15.9821 1.80422 0.9
      vertex 12.8571 3.60844 10.9
    endloop
  endfacet
  facet normal -1 -1.41892e-007 0
    outer loop
      vertex 15.9821 -1.80422 10.9
      vertex 15.9821 1.80422 10.9
      vertex 15.9821 -1.80422 0.9
    endloop
  endfacet
  facet normal -1 -1.41892e-007 0
    outer loop
      vertex 15.9821 -1.80422 0.9
      vertex 15.9821 1.80422 10.9
      vertex 15.9821 1.80422 0.9
    endloop
  endfacet
  facet normal -0.5 0.866025 0
    outer loop
      vertex 15.9821 -1.80422 10.9
      vertex 15.9821 -1.80422 0.9
      vertex 12.8571 -3.60844 10.9
    endloop
  endfacet
  facet normal -0.5 0.866025 0
    outer loop
      vertex 12.8571 -3.60844 10.9
      vertex 15.9821 -1.80422 0.9
      vertex 12.8571 -3.60844 0.9
    endloop
  endfacet
  facet normal 0 0 1
    outer loop
      vertex -4.025 1.96299 16
      vertex -9 9 16
      vertex -9 -9 16
    endloop
  endfacet
  facet normal 0 0 1
    outer loop
      vertex -4.025 -2.32383 16
      vertex -4.025 1.96299 16
      vertex -9 -9 16
    endloop
  endfacet
  facet normal 0 0 1
    outer loop
      vertex -4.025 2.32383 16
      vertex -9 9 16
      vertex -4.025 1.96299 16
    endloop
  endfacet
  facet normal 0 0 1
    outer loop
      vertex -0.3125 4.46725 16
      vertex -9 9 16
      vertex -4.025 2.32383 16
    endloop
  endfacet
  facet normal 0 0 1
    outer loop
      vertex 1.44203e-007 -4.64767 16
      vertex -4.025 -2.32383 16
      vertex -9 -9 16
    endloop
  endfacet
  facet normal 0 0 1
    outer loop
      vertex -1.44203e-007 4.64767 16
      vertex -9 9 16
      vertex -0.3125 4.46725 16
    endloop
  endfacet
  facet normal 0 0 1
    outer loop
      vertex 9 9 16
      vertex -9 9 16
      vertex -1.44203e-007 4.64767 16
    endloop
  endfacet
  facet normal 0 0 1
    outer loop
      vertex 9 -9 16
      vertex 9 9 16
      vertex 4.025 2.32383 16
    endloop
  endfacet
  facet normal 0 0 1
    outer loop
      vertex 9 -9 16
      vertex 4.025 2.32383 16
      vertex 4.025 -1.96299 16
    endloop
  endfacet
  facet normal 0 0 1
    outer loop
      vertex 9 -9 16
      vertex 4.025 -1.96299 16
      vertex 4.025 -2.32383 16
    endloop
  endfacet
  facet normal 0 0 1
    outer loop
      vertex 9 -9 16
      vertex 4.025 -2.32383 16
      vertex 0.3125 -4.46725 16
    endloop
  endfacet
  facet normal 0 0 1
    outer loop
      vertex 9 -9 16
      vertex 1.44203e-007 -4.64767 16
      vertex -9 -9 16
    endloop
  endfacet
  facet normal 0 0 1
    outer loop
      vertex 9 -9 16
      vertex 0.3125 -4.46725 16
      vertex 1.44203e-007 -4.64767 16
    endloop
  endfacet
  facet normal 0 0 1
    outer loop
      vertex -1.44203e-007 4.64767 16
      vertex 4.025 2.32383 16
      vertex 9 9 16
    endloop
  endfacet
  facet normal 0 0 -1
    outer loop
      vertex -15.9821 -1.80422 10.9
      vertex -15.9821 1.80422 10.9
      vertex -12.8571 -3.60844 10.9
    endloop
  endfacet
  facet normal 0 0 -1
    outer loop
      vertex -12.8571 -3.60844 10.9
      vertex -15.9821 1.80422 10.9
      vertex -12.8571 3.60844 10.9
    endloop
  endfacet
  facet normal 0 0 -1
    outer loop
      vertex -12.8571 -3.60844 10.9
      vertex -12.8571 3.60844 10.9
      vertex -9.73214 1.80422 10.9
    endloop
  endfacet
  facet normal 0 0 -1
    outer loop
      vertex -12.8571 -3.60844 10.9
      vertex -9.73214 1.80422 10.9
      vertex -9.73214 -1.80422 10.9
    endloop
  endfacet
  facet normal 0.5 -0.866025 1.06054e-016
    outer loop
      vertex -2.1607 2.36096 10.9
      vertex -2.1607 2.36096 5.1
      vertex -3.54016e-007 3.60844 5.1
    endloop
  endfacet
  facet normal 0.5 -0.866025 1.06054e-016
    outer loop
      vertex -3.125 1.80422 15.1
      vertex -2.1607 2.36096 10.9
      vertex -3.54016e-007 3.60844 15.1
    endloop
  endfacet
  facet normal 0.5 -0.866025 1.06054e-016
    outer loop
      vertex -3.54016e-007 3.60844 15.1
      vertex -2.1607 2.36096 10.9
      vertex -3.54016e-007 3.60844 5.1
    endloop
  endfacet
  facet normal 0.5 -0.866025 1.06054e-016
    outer loop
      vertex -3.125 1.80422 10.9
      vertex -2.1607 2.36096 10.9
      vertex -3.125 1.80422 15.1
    endloop
  endfacet
  facet normal 0 1.22461e-016 1
    outer loop
      vertex -1.15599e-015 3.60844 5.1
      vertex -3.54016e-007 3.60844 5.1
      vertex -2.1607 2.36096 5.1
    endloop
  endfacet
  facet normal -0.5 -0.866025 1.06054e-016
    outer loop
      vertex 3.125 1.80422 15.1
      vertex -5.40876e-016 3.60844 10.9
      vertex 2.1607 2.36096 10.9
    endloop
  endfacet
  facet normal -0.5 -0.866025 1.06054e-016
    outer loop
      vertex -1.15599e-015 3.60844 5.1
      vertex -5.40876e-016 3.60844 10.9
      vertex -3.54016e-007 3.60844 15.1
    endloop
  endfacet
  facet normal -0.5 -0.866025 1.06054e-016
    outer loop
      vertex 2.1607 2.36096 5.1
      vertex 3.125 1.80422 5.1
      vertex 2.1607 2.36096 10.9
    endloop
  endfacet
  facet normal -0.5 -0.866025 1.06054e-016
    outer loop
      vertex 3.125 1.80422 5.1
      vertex 3.125 1.80422 15.1
      vertex 2.1607 2.36096 10.9
    endloop
  endfacet
  facet normal -0.5 -0.866025 1.06054e-016
    outer loop
      vertex 3.125 1.80422 15.1
      vertex -3.54016e-007 3.60844 15.1
      vertex -5.40876e-016 3.60844 10.9
    endloop
  endfacet
  facet normal -0.5 -0.866025 1.06054e-016
    outer loop
      vertex -3.54016e-007 3.60844 15.1
      vertex -3.54016e-007 3.60844 5.1
      vertex -1.15599e-015 3.60844 5.1
    endloop
  endfacet
  facet normal 0 0 -1
    outer loop
      vertex 3.54016e-007 3.60844 10.9
      vertex 2.1607 2.36096 10.9
      vertex -5.40876e-016 3.60844 10.9
    endloop
  endfacet
  facet normal 1 -1.41892e-007 1.73762e-023
    outer loop
      vertex -3.125 1.80422 15.1
      vertex -3.125 -3.12275e-016 10.9
      vertex -3.125 1.80422 10.9
    endloop
  endfacet
  facet normal 1 -1.41892e-007 1.73762e-023
    outer loop
      vertex -3.125 -1.80422 15.1
      vertex -3.125 -3.12275e-016 10.9
      vertex -3.125 1.80422 15.1
    endloop
  endfacet
  facet normal 1 -1.41892e-007 1.73762e-023
    outer loop
      vertex -3.125 -6.6741e-016 5.1
      vertex -3.125 -3.12275e-016 10.9
      vertex -3.125 -1.80422 15.1
    endloop
  endfacet
  facet normal 1 -1.41892e-007 1.73762e-023
    outer loop
      vertex -3.125 -1.80422 5.1
      vertex -3.125 -6.6741e-016 5.1
      vertex -3.125 -1.80422 15.1
    endloop
  endfacet
  facet normal 0 0 -1
    outer loop
      vertex -5.40876e-016 -3.60844 10.9
      vertex -3.54016e-007 -3.60844 10.9
      vertex -2.1607 -2.36096 10.9
    endloop
  endfacet
  facet normal 0.5 0.866025 -1.06054e-016
    outer loop
      vertex -2.1607 -2.36096 10.9
      vertex -3.125 -1.80422 15.1
      vertex -5.40876e-016 -3.60844 10.9
    endloop
  endfacet
  facet normal 0.5 0.866025 -1.06054e-016
    outer loop
      vertex 3.54016e-007 -3.60844 15.1
      vertex 3.54016e-007 -3.60844 5.1
      vertex -5.40876e-016 -3.60844 10.9
    endloop
  endfacet
  facet normal 0.5 0.866025 -1.06054e-016
    outer loop
      vertex 3.54016e-007 -3.60844 15.1
      vertex -5.40876e-016 -3.60844 10.9
      vertex -3.125 -1.80422 15.1
    endloop
  endfacet
  facet normal 0.5 0.866025 -1.06054e-016
    outer loop
      vertex -3.125 -1.80422 15.1
      vertex -2.1607 -2.36096 10.9
      vertex -2.1607 -2.36096 5.1
    endloop
  endfacet
  facet normal 0.5 0.866025 -1.06054e-016
    outer loop
      vertex -3.125 -1.80422 15.1
      vertex -2.1607 -2.36096 5.1
      vertex -3.125 -1.80422 5.1
    endloop
  endfacet
  facet normal 0.5 0.866025 -1.06054e-016
    outer loop
      vertex -5.40876e-016 -3.60844 10.9
      vertex 3.54016e-007 -3.60844 5.1
      vertex -1.15599e-015 -3.60844 5.1
    endloop
  endfacet
  facet normal -1 1.41892e-007 -1.73762e-023
    outer loop
      vertex 3.125 -1.80422 10.9
      vertex 3.125 -1.80422 15.1
      vertex 3.125 -3.12275e-016 10.9
    endloop
  endfacet
  facet normal -1 1.41892e-007 -1.73762e-023
    outer loop
      vertex 3.125 1.80422 15.1
      vertex 3.125 1.80422 5.1
      vertex 3.125 -3.12275e-016 10.9
    endloop
  endfacet
  facet normal -1 1.41892e-007 -1.73762e-023
    outer loop
      vertex 3.125 1.80422 15.1
      vertex 3.125 -3.12275e-016 10.9
      vertex 3.125 -1.80422 15.1
    endloop
  endfacet
  facet normal -1 1.41892e-007 -1.73762e-023
    outer loop
      vertex 3.125 -3.12275e-016 10.9
      vertex 3.125 1.80422 5.1
      vertex 3.125 -6.6741e-016 5.1
    endloop
  endfacet
  facet normal -0.5 0.866025 -1.06054e-016
    outer loop
      vertex 3.125 -1.80422 15.1
      vertex 3.125 -1.80422 10.9
      vertex 3.54016e-007 -3.60844 15.1
    endloop
  endfacet
  facet normal -0.5 0.866025 -1.06054e-016
    outer loop
      vertex 3.54016e-007 -3.60844 15.1
      vertex 3.125 -1.80422 10.9
      vertex 2.1607 -2.36096 10.9
    endloop
  endfacet
  facet normal -0.5 0.866025 -1.06054e-016
    outer loop
      vertex 3.54016e-007 -3.60844 15.1
      vertex 2.1607 -2.36096 10.9
      vertex 2.1607 -2.36096 5.1
    endloop
  endfacet
  facet normal -0.5 0.866025 -1.06054e-016
    outer loop
      vertex 3.54016e-007 -3.60844 15.1
      vertex 2.1607 -2.36096 5.1
      vertex 3.54016e-007 -3.60844 5.1
    endloop
  endfacet
  facet normal 0 1.22461e-016 1
    outer loop
      vertex 3.54016e-007 -3.60844 5.1
      vertex 2.1607 -2.36096 5.1
      vertex -1.15599e-015 -3.60844 5.1
    endloop
  endfacet
  facet normal 0 0 -1
    outer loop
      vertex 15.9821 1.80422 10.9
      vertex 15.9821 -1.80422 10.9
      vertex 12.8571 3.60844 10.9
    endloop
  endfacet
  facet normal 0 0 -1
    outer loop
      vertex 12.8571 3.60844 10.9
      vertex 15.9821 -1.80422 10.9
      vertex 12.8571 -3.60844 10.9
    endloop
  endfacet
  facet normal 0 0 -1
    outer loop
      vertex 12.8571 3.60844 10.9
      vertex 12.8571 -3.60844 10.9
      vertex 9.73214 -1.80422 10.9
    endloop
  endfacet
  facet normal 0 0 -1
    outer loop
      vertex 12.8571 3.60844 10.9
      vertex 9.73214 -1.80422 10.9
      vertex 9.73214 1.80422 10.9
    endloop
  endfacet
  facet normal 0.707107 1.79467e-008 0.707107
    outer loop
      vertex -4.025 -2.32383 16
      vertex -3.125 -1.80422 15.1
      vertex -4.025 1.96299 16
    endloop
  endfacet
  facet normal 0.707107 -1.00333e-007 0.707107
    outer loop
      vertex -3.125 -1.80422 15.1
      vertex -3.125 1.80422 15.1
      vertex -4.025 2.32383 16
    endloop
  endfacet
  facet normal 0.707107 -1.00333e-007 0.707107
    outer loop
      vertex -4.025 1.96299 16
      vertex -3.125 -1.80422 15.1
      vertex -4.025 2.32383 16
    endloop
  endfacet
  facet normal 0.353553 0.612372 0.707107
    outer loop
      vertex 1.44203e-007 -4.64767 16
      vertex 3.54016e-007 -3.60844 15.1
      vertex -3.125 -1.80422 15.1
    endloop
  endfacet
  facet normal 0.353553 0.612372 0.707107
    outer loop
      vertex -4.025 -2.32383 16
      vertex 1.44203e-007 -4.64767 16
      vertex -3.125 -1.80422 15.1
    endloop
  endfacet
  facet normal -0.353554 0.612372 0.707107
    outer loop
      vertex 0.3125 -4.46725 16
      vertex 3.125 -1.80422 15.1
      vertex 3.54016e-007 -3.60844 15.1
    endloop
  endfacet
  facet normal -0.353554 0.612372 0.707107
    outer loop
      vertex 1.44203e-007 -4.64767 16
      vertex 0.3125 -4.46725 16
      vertex 3.54016e-007 -3.60844 15.1
    endloop
  endfacet
  facet normal -0.353553 0.612372 0.707107
    outer loop
      vertex 4.025 -2.32383 16
      vertex 3.125 -1.80422 15.1
      vertex 0.3125 -4.46725 16
    endloop
  endfacet
  facet normal -0.707107 1.00333e-007 0.707107
    outer loop
      vertex 4.025 -2.32383 16
      vertex 4.025 -1.96299 16
      vertex 3.125 1.80422 15.1
    endloop
  endfacet
  facet normal -0.707107 1.00333e-007 0.707107
    outer loop
      vertex 3.125 -1.80422 15.1
      vertex 4.025 -2.32383 16
      vertex 3.125 1.80422 15.1
    endloop
  endfacet
  facet normal -0.707107 -1.79467e-008 0.707107
    outer loop
      vertex 4.025 -1.96299 16
      vertex 4.025 2.32383 16
      vertex 3.125 1.80422 15.1
    endloop
  endfacet
  facet normal -0.353553 -0.612372 0.707107
    outer loop
      vertex 3.125 1.80422 15.1
      vertex 4.025 2.32383 16
      vertex -1.44203e-007 4.64767 16
    endloop
  endfacet
  facet normal -0.353553 -0.612372 0.707107
    outer loop
      vertex -3.54016e-007 3.60844 15.1
      vertex 3.125 1.80422 15.1
      vertex -1.44203e-007 4.64767 16
    endloop
  endfacet
  facet normal 0.353554 -0.612372 0.707107
    outer loop
      vertex -3.54016e-007 3.60844 15.1
      vertex -1.44203e-007 4.64767 16
      vertex -0.3125 4.46725 16
    endloop
  endfacet
  facet normal 0.353554 -0.612372 0.707107
    outer loop
      vertex -3.125 1.80422 15.1
      vertex -3.54016e-007 3.60844 15.1
      vertex -0.3125 4.46725 16
    endloop
  endfacet
  facet normal 0.353553 -0.612372 0.707107
    outer loop
      vertex -3.125 1.80422 15.1
      vertex -0.3125 4.46725 16
      vertex -4.025 2.32383 16
    endloop
  endfacet
endsolid OpenSCAD_Model
